<svg width="761" height="553" viewBox="0 0 761 553" fill="none" xmlns="http://www.w3.org/2000/svg">
<mask id="mask0" style="mask-type:alpha" maskUnits="userSpaceOnUse" x="-1" y="0" width="762" height="553">
<rect x="-0.0244141" y="0.5" width="760.214" height="552.5" fill="#E2E7FF"/>
</mask>
<g mask="url(#mask0)">
<path d="M436.288 97.1371C442.081 97.2917 447.835 97.9361 453.602 98.4258C459.02 98.9156 464.4 99.7146 469.754 100.694C484.68 103.632 498.945 109.262 511.852 117.306C517.167 120.515 522.379 123.905 527.398 127.616C530.642 129.916 533.597 132.598 536.196 135.607C536.799 136.333 537.35 137.099 537.848 137.901C537.933 138.055 537.958 138.235 537.918 138.407C537.877 138.578 537.774 138.729 537.628 138.828C537.493 138.937 537.329 139.002 537.156 139.016C536.984 139.029 536.811 138.991 536.661 138.906C536.43 138.793 536.224 138.635 536.054 138.442C532.626 134.321 528.594 130.74 524.095 127.822C516.302 122.288 508.108 117.339 499.582 113.015C491.332 108.873 482.606 105.753 473.599 103.723C464.231 101.688 454.713 100.421 445.139 99.9337L429.915 98.9929C428.767 98.9929 428.186 98.5032 428.264 97.8072C428.341 97.1113 428.857 96.8793 429.876 96.9051C431.966 96.9567 434.134 97.0598 436.288 97.1371Z" fill="#020101"/>
<path d="M157.697 328.134C157.513 328.144 157.332 328.089 157.185 327.978C157.039 327.867 156.937 327.707 156.897 327.528C156.843 326.831 157.025 326.137 157.413 325.556C158.794 322.397 160.38 319.332 162.161 316.38C166.675 309.028 171.585 301.925 176.868 295.103C182.132 288.156 187.538 281.3 193.421 274.856C206.635 260.425 222.33 248.474 239.762 239.57C240.227 239.338 240.704 239.145 241.182 238.926C242.149 238.5 242.691 238.552 242.962 239.119C243.233 239.686 242.962 239.982 242.072 240.408C238.743 242.057 235.531 243.913 232.344 245.808C216.593 255.04 202.524 266.875 190.737 280.81C182.645 290.368 175.061 300.344 168.018 310.697C164.572 315.757 161.518 321.074 158.884 326.6C158.727 327.004 158.532 327.392 158.303 327.76C158.2 327.94 157.916 328.031 157.697 328.134Z" fill="#020202"/>
<path d="M652.557 478.994C651.615 478.878 650.661 478.813 649.719 478.646C639.615 476.848 629.611 474.525 619.749 471.686C604.787 467.187 590.527 460.624 577.381 452.187C573.414 449.741 569.648 446.983 566.118 443.939C563.522 441.675 561.239 439.075 559.332 436.207C558.851 435.592 558.512 434.879 558.339 434.119C558.298 433.783 558.343 433.441 558.468 433.127C558.499 433.046 558.549 432.973 558.612 432.914C558.676 432.854 558.752 432.81 558.835 432.784C558.918 432.758 559.006 432.751 559.092 432.763C559.178 432.776 559.26 432.808 559.332 432.856C559.564 432.968 559.758 433.148 559.887 433.371C562.557 438.256 566.596 441.864 570.943 445.189C576.192 449.124 581.724 452.664 587.496 455.783C592.9 458.835 598.479 461.567 604.203 463.967C609.222 466.029 614.343 467.833 619.53 469.431C624.974 471.093 630.483 472.524 636.031 473.8C639.978 474.715 643.978 475.385 647.964 476.132C649.667 476.442 651.383 476.661 653.125 476.944C653.822 477.048 654.105 477.37 654.08 477.911C654.054 478.452 653.615 478.8 653.099 478.955C652.92 478.983 652.739 478.996 652.557 478.994Z" fill="#020101"/>
<path d="M204.67 149.358C204.578 147.272 204.734 145.182 205.135 143.133C205.205 142.691 205.326 142.258 205.496 141.844C205.663 141.458 205.909 141.032 206.463 141.264C206.67 141.337 206.844 141.481 206.955 141.669C207.066 141.858 207.107 142.08 207.07 142.295C206.941 143.326 206.786 144.344 206.644 145.375C206.302 148.212 206.341 151.081 206.76 153.907C208.06 163.667 210.745 173.192 214.733 182.195C221.183 197.011 233.011 208.836 247.838 215.291C249.644 216.103 251.567 216.579 253.411 217.327C253.876 217.507 254.456 217.675 254.366 218.358C254.366 218.835 253.618 219.08 252.87 218.925C249.673 218.165 246.592 216.982 243.71 215.407C231.742 209.37 221.917 199.811 215.559 188.02C212.707 182.6 210.411 176.904 208.708 171.022C207.283 166.411 206.15 161.715 205.315 156.961C204.825 154.458 204.609 151.908 204.67 149.358V149.358Z" fill="#030202"/>
<path d="M229.17 228.075C224.425 228.092 219.685 227.799 214.978 227.199C211.211 226.722 207.418 226.439 203.651 225.91C198.49 225.189 193.252 224.338 188.053 223.513C185.847 223.152 183.628 222.766 181.435 222.328C179.835 221.992 178.248 221.567 176.661 221.142C176.334 221.044 176.034 220.872 175.784 220.639C175.652 220.525 175.566 220.367 175.54 220.195C175.514 220.023 175.55 219.847 175.642 219.698C175.776 219.494 175.984 219.351 176.223 219.299C176.737 219.318 177.248 219.396 177.745 219.531C182.015 220.588 186.337 221.4 190.646 222.108C196.271 222.946 201.922 223.719 207.56 224.441C211.766 224.982 215.959 225.549 220.178 225.833C224.396 226.116 228.641 226.129 232.872 226.142C235.362 226.142 237.865 225.923 240.368 225.807C240.962 225.807 241.658 225.717 241.903 226.413C242.149 227.109 241.607 227.379 240.523 227.534C236.757 227.996 232.962 228.177 229.17 228.075V228.075ZM180.609 251.028C180.609 251.157 180.493 251.453 180.312 251.582C179.905 251.884 179.474 252.151 179.022 252.381C167.738 258.332 156.925 265.135 146.679 272.731C143.634 274.997 140.802 277.533 138.215 280.309C137.467 281.121 136.835 281.262 136.499 280.786C136.164 280.309 136.499 279.652 136.912 279.2C139.286 276.348 142.003 273.798 145.001 271.61C155.262 263.901 166.15 257.064 177.551 251.17C178.246 250.833 178.961 250.54 179.693 250.294C179.802 250.277 179.914 250.284 180.02 250.313C180.127 250.341 180.226 250.392 180.312 250.461C180.398 250.53 180.469 250.616 180.52 250.713C180.571 250.811 180.601 250.918 180.609 251.028V251.028Z" fill="#050303"/>
<path d="M545.073 122.887C544.933 123.129 544.754 123.346 544.544 123.531C544.433 123.585 544.312 123.613 544.189 123.613C544.066 123.613 543.945 123.585 543.834 123.531C543.486 123.278 543.166 122.989 542.88 122.668C535.575 114.796 527.055 108.143 517.645 102.963C514.865 101.231 511.938 99.7471 508.897 98.5292L508.652 98.4261C508.046 98.1168 507.736 97.6142 507.943 97.2404C508.056 97.0001 508.24 96.8006 508.471 96.6691C508.702 96.5376 508.968 96.4806 509.233 96.5058C510.337 96.7154 511.401 97.1028 512.381 97.6528C516.832 99.9597 521.167 102.447 525.385 105.153C531.896 109.414 537.869 114.442 543.176 120.129C543.733 120.711 544.255 121.327 544.737 121.972C544.888 122.261 545.001 122.569 545.073 122.887Z" fill="#050404"/>
<path d="M224.1 270.502C223.584 270.502 223.068 270.502 222.551 270.502C222.333 270.508 222.117 270.459 221.923 270.358C221.728 270.258 221.563 270.11 221.442 269.929C221.321 269.747 221.248 269.538 221.229 269.32C221.211 269.102 221.249 268.884 221.339 268.685C221.529 268.114 221.77 267.562 222.061 267.035C222.947 265.548 223.356 263.826 223.235 262.099C223.106 260.707 223.661 260.347 224.9 260.81C225.991 261.323 227.138 261.708 228.318 261.957C229.066 262.171 229.867 262.083 230.55 261.713C230.718 261.574 230.933 261.507 231.149 261.524C231.366 261.54 231.567 261.641 231.711 261.803C231.893 261.986 231.996 262.234 231.996 262.492C231.996 262.751 231.893 262.998 231.711 263.182C231.193 263.926 230.875 264.792 230.789 265.695C230.703 266.598 230.852 267.508 231.221 268.337C231.662 269.256 232.208 270.12 232.847 270.914C233.531 271.868 233.427 272.345 232.989 272.732C232.55 273.118 231.853 272.732 231.35 272.538C230.728 272.242 230.121 271.915 229.531 271.559C227.855 270.706 225.973 270.34 224.1 270.502Z" fill="#020202"/>
<path d="M244.136 169.978C244.336 169.952 244.54 169.974 244.73 170.041C244.92 170.108 245.093 170.219 245.232 170.365C245.834 170.977 246.472 171.554 247.142 172.092C248.355 173.202 249.892 173.897 251.528 174.076C252.496 174.076 252.921 175.043 252.251 175.687C250.457 177.414 250.561 179.553 250.819 181.68C250.909 182.363 250.986 183.046 251.012 183.729C251.029 183.902 250.981 184.074 250.879 184.214C250.777 184.355 250.627 184.452 250.457 184.489C250.294 184.543 250.12 184.549 249.953 184.508C249.787 184.467 249.635 184.38 249.515 184.257C249.27 184.025 249.103 183.716 248.87 183.458C248.046 182.518 247.039 181.754 245.91 181.213C244.781 180.673 243.554 180.367 242.304 180.314C241.792 180.335 241.284 180.22 240.833 179.979C240.02 179.502 239.878 179.051 240.497 178.368C240.794 178.059 241.13 177.775 241.426 177.466C242.115 176.812 242.661 176.024 243.032 175.15C243.402 174.277 243.589 173.337 243.581 172.388C243.549 171.787 243.549 171.185 243.581 170.584C243.658 170.236 243.865 169.978 244.136 169.978Z" fill="#020101"/>
<path d="M346.468 385.208C348.77 385.436 351.001 386.133 353.022 387.257C355.63 388.756 358.138 390.422 360.531 392.245C365.55 395.89 370.294 399.9 374.722 404.243C375.822 405.335 376.82 406.526 377.702 407.8C378.363 408.714 378.772 409.785 378.889 410.906C378.938 411.116 378.911 411.336 378.815 411.529C378.718 411.722 378.558 411.875 378.36 411.963C378.259 412.006 378.15 412.028 378.04 412.027C377.93 412.026 377.821 412.002 377.721 411.958C377.62 411.913 377.53 411.848 377.456 411.767C377.382 411.686 377.325 411.59 377.289 411.486C375.651 407.401 372.31 404.72 369.187 401.923C364.64 397.835 359.798 394.088 354.699 390.711C353.291 389.7 351.782 388.836 350.197 388.134C348.958 387.525 347.59 387.228 346.21 387.27C345.372 387.347 344.984 386.961 344.997 386.329C345.001 386.026 345.123 385.736 345.337 385.522C345.552 385.308 345.842 385.186 346.146 385.182L346.468 385.208Z" fill="#050303"/>
<path d="M655.473 490.605C648.992 490.361 642.556 489.424 636.276 487.809C632.779 486.893 629.296 485.94 625.877 484.754C624.987 484.443 624.124 484.059 623.297 483.607C622.666 483.315 622.145 482.826 621.813 482.215C621.7 482.031 621.645 481.816 621.657 481.6C621.669 481.383 621.746 481.176 621.878 481.004C621.944 480.917 622.028 480.845 622.123 480.792C622.219 480.739 622.324 480.706 622.433 480.695C622.542 480.684 622.652 480.695 622.756 480.729C622.86 480.762 622.957 480.816 623.039 480.888C625.49 482.834 628.509 483.349 631.373 484.239C635.388 485.554 639.499 486.558 643.668 487.241C648.765 488.246 653.957 488.679 659.15 488.53C659.743 488.53 660.44 488.363 660.633 489.162C660.827 489.961 660.298 490.36 659.343 490.45C657.885 490.541 656.415 490.554 655.473 490.605ZM521.183 529.796C522.128 529.922 523.052 530.174 523.931 530.544C528.843 532.716 533.162 536.035 536.522 540.222C540.671 545.192 544.209 550.639 547.063 556.448C547.445 557.028 547.663 557.7 547.695 558.394C547.702 558.564 547.66 558.733 547.573 558.879C547.486 559.026 547.358 559.144 547.205 559.219C547.045 559.294 546.865 559.315 546.692 559.278C546.52 559.241 546.364 559.147 546.25 559.012C545.768 558.309 545.337 557.573 544.96 556.809C542.256 551.413 538.936 546.349 535.065 541.717C532.017 537.953 528.205 534.878 523.879 532.696C522.783 532.168 521.596 531.923 520.473 531.497C520.27 531.419 520.104 531.266 520.011 531.069C519.917 530.873 519.903 530.648 519.97 530.441C520.019 530.274 520.116 530.125 520.249 530.013C520.382 529.901 520.545 529.83 520.718 529.809C520.872 529.788 521.028 529.783 521.183 529.796V529.796Z" fill="#050404"/>
<path d="M145.002 179.63C145.296 179.57 145.599 179.572 145.893 179.636C146.186 179.701 146.463 179.826 146.705 180.004C148.524 180.996 150.304 182.04 152.097 183.046L174.03 195.263C176.317 196.635 178.743 197.762 181.267 198.627C181.511 198.704 181.727 198.852 181.887 199.052C182.037 199.251 182.107 199.5 182.08 199.748C182.058 199.921 181.974 200.08 181.844 200.197C181.713 200.313 181.545 200.378 181.371 200.379C180.855 200.338 180.348 200.23 179.861 200.057C177.583 199.239 175.377 198.23 173.268 197.041C164.47 192.144 155.68 187.234 146.898 182.311C146.075 181.999 145.349 181.474 144.795 180.79C144.678 180.574 144.642 180.322 144.692 180.081C144.757 179.908 144.863 179.754 145.002 179.63V179.63Z" fill="#060505"/>
<path d="M237.801 334.192C237.801 335.03 237.801 335.558 237.349 335.945C237.226 336.067 237.074 336.156 236.907 336.206C236.741 336.255 236.565 336.263 236.395 336.228C236.221 336.209 236.062 336.126 235.947 335.994C235.832 335.863 235.771 335.694 235.775 335.52C235.879 332.079 234.292 329.192 232.744 326.305C229.666 320.319 225.885 314.721 221.481 309.628C220.591 308.623 219.829 307.412 218.255 307.244C217.726 307.244 217.52 306.561 217.43 306.033C217.393 305.844 217.406 305.649 217.466 305.466C217.527 305.283 217.634 305.119 217.777 304.99C217.919 304.86 218.093 304.77 218.28 304.727C218.468 304.684 218.664 304.69 218.849 304.744C219.335 304.873 219.78 305.127 220.139 305.479C221.609 306.676 222.942 308.034 224.113 309.525C227.242 313.337 230.055 317.397 232.524 321.665C233.847 323.889 235.032 326.192 236.072 328.56C236.867 330.364 237.447 332.254 237.801 334.192V334.192Z" fill="#050404"/>
<path d="M184.635 259.637C184.764 259.714 185.048 259.791 185.151 259.985C185.316 260.282 185.413 260.612 185.435 260.951C185.421 262.028 185.691 263.089 186.219 264.029C186.747 264.968 187.513 265.751 188.441 266.299C188.583 266.396 188.716 266.503 188.841 266.622C188.948 266.726 189.026 266.857 189.068 267.001C189.109 267.145 189.113 267.297 189.078 267.442C189.043 267.588 188.97 267.722 188.868 267.831C188.765 267.94 188.636 268.021 188.492 268.065C187.909 268.208 187.312 268.295 186.712 268.323C185.847 268.289 184.989 268.497 184.235 268.923C183.481 269.348 182.86 269.975 182.442 270.733C182.328 270.968 182.14 271.159 181.907 271.278C181.674 271.396 181.409 271.436 181.152 271.39C180.849 271.367 180.564 271.238 180.346 271.026C180.129 270.814 179.994 270.532 179.965 270.23C179.764 267.809 178.669 265.55 176.894 263.889C176.172 263.129 176.559 262.214 177.617 262.047C178.287 261.931 178.984 261.931 179.668 261.802C181.126 261.642 182.504 261.054 183.629 260.113C183.75 259.964 183.903 259.843 184.078 259.761C184.252 259.678 184.442 259.636 184.635 259.637Z" fill="#030202"/>
<path d="M234.189 344.359C234.06 344.862 233.879 345.171 233.518 345.223C233.397 345.249 233.271 345.25 233.149 345.226C233.027 345.202 232.911 345.152 232.809 345.081C232.424 344.621 232.099 344.114 231.841 343.573C228.923 337.91 225.531 332.504 221.701 327.412C219.869 324.835 217.727 322.438 215.65 320.028C215.214 319.495 214.674 319.056 214.063 318.739C213.665 318.554 213.33 318.256 213.101 317.883C212.872 317.509 212.757 317.076 212.773 316.638C212.769 316.484 212.805 316.332 212.877 316.195C212.948 316.059 213.054 315.943 213.184 315.859C213.313 315.775 213.462 315.725 213.616 315.715C213.77 315.705 213.924 315.734 214.063 315.8C214.82 316.215 215.49 316.77 216.037 317.437C220.047 321.703 223.673 326.313 226.874 331.214C229.362 334.83 231.562 338.634 233.454 342.594C233.815 343.199 233.983 343.844 234.189 344.359Z" fill="#050404"/>
<path d="M659.196 96.1902C659.028 96.1664 658.865 96.1094 658.719 96.0227C658.506 95.8744 658.347 95.6611 658.265 95.4148C658.184 95.1685 658.184 94.9024 658.267 94.6566C658.505 93.8304 658.799 93.0209 659.145 92.2337C662.718 85.1326 667.298 78.8822 673.917 74.2684C675.785 73.1905 677.488 71.8493 678.974 70.2861C679.111 70.1498 679.276 70.0459 679.458 69.982C679.64 69.9181 679.834 69.8958 680.026 69.9168C680.218 69.9379 680.403 70.0016 680.567 70.1035C680.731 70.2053 680.87 70.3426 680.974 70.5052C681.087 70.6927 681.138 70.9119 681.117 71.1302C681.096 71.3484 681.005 71.5541 680.858 71.7167C680.363 72.1916 679.827 72.6228 679.258 73.0054C676.613 74.9386 673.917 76.8717 671.44 78.9466C667.492 82.563 664.197 86.8309 661.699 91.5636C660.891 92.7893 660.29 94.1388 659.919 95.5587C659.871 95.7219 659.778 95.8682 659.65 95.9801C659.522 96.092 659.364 96.1649 659.196 96.1902V96.1902ZM696.868 88.4963C696.887 88.7132 696.839 88.9305 696.73 89.1193C696.622 89.3082 696.458 89.4595 696.262 89.5531C695.702 89.7772 695.124 89.9498 694.533 90.0686C691.011 90.8547 687.489 91.6409 684.031 92.7234C680.834 93.7231 677.794 95.1678 675 97.015C672.818 98.2607 671.009 100.067 669.762 102.247C669.717 102.347 669.652 102.437 669.571 102.511C669.49 102.585 669.395 102.643 669.292 102.68C669.188 102.717 669.079 102.733 668.969 102.728C668.859 102.722 668.752 102.695 668.653 102.647C668.535 102.595 668.429 102.521 668.341 102.428C668.252 102.335 668.183 102.225 668.137 102.105C668.092 101.985 668.07 101.857 668.075 101.729C668.079 101.601 668.109 101.475 668.163 101.358C668.457 100.556 668.894 99.8137 669.453 99.1672C671.29 97.0904 673.472 95.3464 675.903 94.0122C679.023 92.1822 682.397 90.8229 685.915 89.9784C689.179 89.1793 692.366 88.3288 695.668 87.5168C695.812 87.4971 695.959 87.5072 696.099 87.5465C696.239 87.5858 696.369 87.6536 696.482 87.7455C696.594 87.8374 696.687 87.9515 696.753 88.0807C696.82 88.2099 696.859 88.3513 696.868 88.4963Z" fill="#060505"/>
<path d="M116.051 262.33C116.18 262.33 116.502 262.485 116.825 262.562C117.664 262.755 118.502 262.974 119.405 263.116C119.906 263.253 120.432 263.273 120.942 263.174C121.452 263.076 121.933 262.862 122.347 262.549C122.492 262.386 122.69 262.277 122.906 262.242C123.122 262.207 123.344 262.247 123.534 262.356C123.729 262.529 123.861 262.762 123.91 263.019C123.959 263.275 123.922 263.54 123.805 263.773C123.714 264.018 123.624 264.263 123.547 264.508C123.27 265.284 123.18 266.115 123.286 266.933C123.391 267.75 123.688 268.531 124.153 269.212C124.243 269.354 124.359 269.483 124.463 269.624C124.85 270.191 125.314 270.81 124.772 271.467C124.23 272.125 123.598 271.79 123.082 271.467C121.405 270.533 119.431 270.284 117.573 270.771C117.347 270.829 117.11 270.831 116.882 270.777C116.655 270.723 116.444 270.615 116.267 270.462C116.091 270.308 115.954 270.114 115.87 269.897C115.785 269.679 115.754 269.444 115.78 269.212C116.063 267.325 115.78 265.397 114.967 263.67C114.683 263.129 115.29 262.343 116.051 262.33Z" fill="#020101"/>
<path d="M177.81 150.39C177.165 150.39 176.842 150.261 176.752 149.887C176.667 149.463 176.628 149.031 176.636 148.598C176.727 147.652 176.559 146.699 176.15 145.841C175.741 144.983 175.106 144.253 174.314 143.727C174.174 143.622 174.052 143.496 173.952 143.353C173.825 143.145 173.781 142.897 173.828 142.658C173.876 142.419 174.013 142.207 174.21 142.064C174.452 141.969 174.702 141.899 174.959 141.858C175.634 141.713 176.273 141.434 176.838 141.038C177.403 140.642 177.883 140.136 178.249 139.551C178.486 139.198 178.754 138.866 179.048 138.559C179.161 138.459 179.296 138.387 179.442 138.349C179.588 138.312 179.741 138.309 179.889 138.342C180.036 138.374 180.173 138.441 180.29 138.537C180.406 138.633 180.498 138.756 180.558 138.894C180.654 139.129 180.719 139.376 180.751 139.629C180.961 141.43 181.574 143.161 182.545 144.693C183.164 145.686 182.97 146.292 181.861 146.665C181.127 146.919 180.452 147.317 179.873 147.835C179.295 148.352 178.826 148.98 178.494 149.681C178.339 150.029 178.068 150.403 177.81 150.39Z" fill="#030202"/>
<path d="M690.303 260.379C690.481 260.429 690.654 260.498 690.819 260.585C690.962 260.672 691.078 260.797 691.154 260.946C694.354 267.867 700.082 272.158 706.52 275.702C707.874 276.437 709.28 277.081 710.661 277.777C710.97 277.918 711.25 278.114 711.487 278.357C711.613 278.478 711.694 278.638 711.718 278.812C711.741 278.985 711.705 279.161 711.616 279.311C711.547 279.467 711.429 279.597 711.28 279.681C711.131 279.765 710.959 279.798 710.79 279.775C710.365 279.705 709.952 279.575 709.564 279.388C706.201 277.849 702.98 276.017 699.94 273.911C696.779 271.656 694.026 268.88 691.799 265.702C691.098 264.62 690.457 263.502 689.877 262.351C689.746 262.126 689.669 261.875 689.651 261.615C689.634 261.356 689.675 261.096 689.774 260.856C689.838 260.65 690.122 260.534 690.303 260.379Z" fill="#080606"/>
<path d="M132.203 195.998C132.416 196.015 132.623 196.076 132.811 196.175C133 196.275 133.166 196.412 133.3 196.578C134.286 197.671 135.56 198.466 136.977 198.872C137.149 198.904 137.311 198.977 137.449 199.085C137.587 199.192 137.698 199.332 137.771 199.491C137.844 199.65 137.878 199.824 137.87 199.999C137.862 200.174 137.813 200.344 137.725 200.496C137.638 200.737 137.521 200.966 137.377 201.179C136.872 201.776 136.508 202.478 136.309 203.234C136.11 203.989 136.083 204.78 136.228 205.548C136.239 205.805 136.204 206.062 136.125 206.308C136.089 206.409 136.03 206.5 135.955 206.576C135.879 206.652 135.787 206.711 135.687 206.748C135.586 206.784 135.478 206.799 135.371 206.79C135.264 206.781 135.16 206.748 135.067 206.695C134.733 206.43 134.422 206.136 134.138 205.818C133.705 205.29 133.167 204.857 132.559 204.544C131.951 204.232 131.286 204.047 130.603 204.001C129.958 204.001 129.313 204.001 129.133 203.241C128.988 202.922 128.937 202.569 128.985 202.222C129.033 201.876 129.178 201.55 129.404 201.282C129.52 201.166 129.597 200.998 129.713 200.882C130.788 199.87 131.438 198.488 131.532 197.016C131.539 196.801 131.605 196.592 131.723 196.412C131.842 196.232 132.008 196.089 132.203 195.998V195.998Z" fill="#030303"/>
<path d="M714.247 264.902C708.041 265.225 702.816 262.84 698.094 259.064C697.641 258.658 697.211 258.228 696.804 257.776C696.502 257.465 696.331 257.049 696.327 256.616C696.308 256.444 696.338 256.271 696.413 256.116C696.489 255.961 696.606 255.831 696.753 255.739C696.824 255.691 696.905 255.657 696.99 255.64C697.075 255.623 697.163 255.622 697.248 255.639C697.333 255.656 697.414 255.689 697.486 255.738C697.559 255.786 697.62 255.848 697.668 255.92C698.455 257.057 699.487 258.004 700.687 258.691C704.908 261.762 710.084 263.237 715.292 262.853C716.401 262.776 717.524 262.737 718.646 262.712C718.82 262.712 718.989 262.775 719.121 262.888C719.253 263.002 719.341 263.158 719.369 263.33C719.446 263.781 719.369 264.207 718.865 264.374C718.38 264.538 717.878 264.646 717.369 264.696C716.324 264.825 715.279 264.851 714.247 264.902Z" fill="#0B0808"/>
<path d="M517.636 315.945C516.551 309.596 514.037 303.577 510.285 298.342C506.534 293.106 501.642 288.791 495.979 285.723C485.82 279.684 473.811 277.55 462.193 279.718C450.993 281.442 440.796 287.163 433.488 295.823C429.812 299.984 427.04 304.861 425.345 310.148C423.651 315.435 423.071 321.015 423.643 326.537C424.149 332.066 425.752 337.438 428.358 342.34C430.965 347.242 434.522 351.575 438.823 355.086C447.342 362.14 457.947 366.194 468.999 366.621C480.052 367.048 490.938 363.824 499.976 357.448C503.692 354.168 507.197 350.657 510.47 346.935C513.71 342.529 516.018 337.508 517.25 332.179C518.482 326.85 518.614 321.326 517.636 315.945V315.945ZM495.073 356.739C487.082 361.452 477.901 363.756 468.632 363.374C457.641 363.059 447.164 358.649 439.256 351.01C435.29 347.356 432.142 342.903 430.018 337.946C427.895 332.988 426.844 327.638 426.935 322.245C427.026 316.853 428.257 311.541 430.547 306.658C432.837 301.775 436.134 297.432 440.221 293.913C448.543 286.709 459.137 282.665 470.143 282.492C481.149 282.319 491.865 286.028 500.409 292.968C521.574 310.649 519.231 342.131 495.073 356.739Z" fill="#020101"/>
<path d="M598.202 167.336C597.91 167.059 597.522 166.904 597.119 166.904C596.716 166.904 596.329 167.059 596.036 167.336C595.072 168.143 594.186 169.049 593.28 169.935C588.358 174.837 583.436 179.779 578.494 184.681C578.012 185.304 577.356 185.768 576.608 186.013C575.861 186.259 575.057 186.275 574.3 186.059C573.69 185.882 573.04 185.902 572.331 185.784C559.866 183.629 547.256 182.425 534.608 182.181C519.591 181.649 504.556 182.004 489.58 183.244C480.917 183.913 472.254 184.721 463.67 186.178C447.959 188.942 432.439 192.703 417.205 197.439C402.029 201.917 387.613 208.654 374.442 217.423C353.73 231.246 335.582 248.568 320.81 268.613C308.556 285.304 297.282 302.692 287.044 320.69C285.233 323.84 283.415 326.983 281.591 330.12C280.252 332.404 280.213 332.404 277.909 331.656C276.55 331.223 275.231 330.711 273.971 330.239C268.755 328.414 263.384 327.063 257.925 326.202C249.322 324.924 240.633 324.312 231.936 324.371C219.427 324.151 206.958 325.844 194.961 329.392C171.827 336.381 156.45 351.049 150.741 374.971C147.192 389.239 144.802 403.77 143.594 418.424C142.683 428.023 142.301 437.665 142.452 447.307C142.664 453.012 144.002 458.619 146.39 463.806C148.295 467.818 151.272 471.225 154.993 473.65C160.9 477.765 171.315 479.064 178.088 470.834C178.482 470.362 178.954 469.948 179.388 469.496C178.639 465.558 180.47 462.073 181.908 458.726C187.677 444.616 196.405 431.907 207.503 421.456C214.192 415.382 222.326 411.125 231.129 409.091C236.937 407.693 238.433 409.387 236.681 415.116C233.654 423.979 232.975 433.476 234.712 442.68C235.2 445.42 236.396 447.984 238.182 450.119C239.967 452.254 242.28 453.884 244.891 454.847C248.612 456.383 248.829 457.742 245.699 460.399C235.205 469.043 225.4 478.454 215.004 487.196C207.385 493.614 200.277 500.584 192.717 507.061C190.187 509.256 188.296 512.092 187.243 515.271C186.608 517.23 186.558 519.332 187.1 521.318C187.642 523.305 188.753 525.09 190.295 526.455C193.563 529.093 196.851 528.226 200.001 526.356C207.247 522.064 213.37 516.295 220.064 511.255C234.043 500.663 248.022 490.09 260.485 477.666C260.92 477.098 261.48 476.637 262.122 476.319C262.764 476.002 263.47 475.836 264.186 475.835L264.422 475.934C264.816 475.697 265.269 476.131 265.249 476.544C265.447 476.784 265.613 477.049 265.741 477.332C267.71 486.329 272.495 490.247 282.792 490.05C290.49 489.913 298.228 489.361 305.926 488.849C310.907 488.534 312.384 490.011 311.025 494.913C306.753 510.31 297.991 521.828 282.24 526.789C275.901 528.758 269.541 530.727 263.064 532.145C252.509 534.167 242.359 537.912 233.019 543.229C232.764 543.211 232.512 543.158 232.271 543.072C231.615 543.351 231.022 543.76 230.528 544.275C230.034 544.789 229.649 545.398 229.396 546.064C229.232 546.417 229.087 546.778 228.963 547.147C228.676 547.854 228.292 548.516 227.821 549.116C226.994 550.1 227.821 551.439 227.073 552.463C226.463 559.492 229.652 564.611 235.264 568.45L236.445 569.277C247.669 577.104 260.978 581.396 274.66 581.602C280.507 581.78 286.359 581.503 292.163 580.775C304.111 579.501 315.887 576.947 327.288 573.156C338.822 569.321 350.018 564.533 360.758 558.842C372.131 552.814 381.831 544.061 388.992 533.365C392.671 527.986 395.339 521.981 396.867 515.646C398.638 507.938 399.582 500.064 399.683 492.157C399.781 485.187 400.313 478.257 400.746 471.307C400.733 470.212 401.065 469.14 401.694 468.243C402.322 467.346 403.216 466.668 404.25 466.306C408.857 464.219 413.307 461.797 417.757 459.435C438.32 448.642 457.588 435.544 475.188 420.392C490.545 406.965 505.193 392.828 519.448 378.16C535.194 362.112 548.74 344.045 559.731 324.43C567.69 310.773 573.694 296.067 577.568 280.742C578.947 274.835 580.285 269.047 581.388 263.16C583.819 251.378 584.863 239.351 584.499 227.327C584.203 221.164 583.692 215.021 583.278 208.878C582.984 204.616 582.075 200.418 580.581 196.416C579.99 194.781 579.714 193.049 579.222 191.395C579.011 190.641 579.029 189.841 579.275 189.098C579.52 188.354 579.982 187.701 580.6 187.221C585.7 182.26 590.72 177.219 595.761 172.179C596.647 171.293 597.533 170.387 598.34 169.423C598.482 169.284 598.592 169.116 598.663 168.93C598.734 168.744 598.764 168.546 598.75 168.347C598.737 168.149 598.682 167.956 598.587 167.782C598.492 167.607 598.361 167.455 598.202 167.336ZM237.095 406.847C223.313 406.729 212.622 413.305 203.23 422.598C194.366 431.619 187.126 442.102 181.829 453.587C180.35 456.563 179.163 459.675 178.285 462.88C177.701 465.66 176.335 468.215 174.347 470.244C169.09 475.323 161.077 474.004 156.825 470.893C153.541 468.645 150.944 465.53 149.323 461.896C147.575 457.827 146.517 453.495 146.193 449.079C145.834 439.764 146.117 430.436 147.039 421.16C147.551 414.525 148.102 407.93 149.146 401.373C150.623 392.317 152.257 383.299 154.541 374.439C159.837 353.963 172.989 340.654 192.756 333.822C203.989 329.951 215.783 327.956 227.664 327.915C231.779 327.915 235.874 327.915 239.989 327.915C252.176 328.082 264.258 330.189 275.783 334.157C276.649 334.452 277.496 334.865 278.244 335.18C278.283 335.768 278.206 336.357 278.017 336.915C277.827 337.472 277.53 337.987 277.141 338.429C272.613 346.029 268.183 353.688 263.477 361.169C254.578 374.857 246.675 389.169 239.831 403.992C239.575 404.563 239.339 405.153 239.024 405.705C238.857 406.069 238.583 406.373 238.238 406.577C237.893 406.781 237.494 406.875 237.095 406.847ZM246.486 450.28C244.281 452.465 243.671 452.406 241.308 450.516C239.969 449.433 239.812 448.941 240.973 447.385C243.336 444.216 245.738 441.065 248.278 438.053C251.133 434.686 254.184 431.457 257.138 428.209C257.669 427.618 258.339 427.087 258.319 426.24C258.301 425.783 258.143 425.343 257.866 424.98C257.726 424.789 257.525 424.65 257.297 424.586C257.069 424.522 256.825 424.535 256.606 424.625C255.435 425.119 254.426 425.931 253.692 426.968C248.683 432.239 244.014 437.822 239.713 443.684C239.26 444.294 239.004 445.141 237.882 445.18C237.115 444.027 236.665 442.691 236.579 441.309C236.492 439.926 236.772 438.545 237.39 437.305C238.462 434.846 239.86 432.541 241.544 430.453C245.036 426.363 248.965 422.666 253.259 419.428C254.133 418.761 254.968 418.044 255.759 417.282C255.98 417.051 256.103 416.744 256.103 416.425C256.103 416.106 255.98 415.799 255.759 415.569C255.595 415.297 255.346 415.087 255.051 414.969C254.756 414.852 254.431 414.834 254.125 414.919C253.42 415.242 252.759 415.652 252.156 416.14C246.469 420.161 241.475 425.082 237.37 430.709C234.89 430 236.189 428.307 236.386 426.89C237.062 421.08 238.587 415.402 240.914 410.036C246.768 396.225 253.72 382.905 261.705 370.206C264.186 366.269 266.687 362.331 269.482 357.763C272.18 362.567 273.912 367.273 276.472 371.545C279.031 375.818 281.453 379.992 284.209 384.028C286.966 388.064 290.116 392.238 293.227 396.215C296.337 400.192 299.448 403.736 302.618 407.516C302.2 408.033 301.746 408.52 301.26 408.973C286.848 421.298 273.066 434.352 259.185 447.267C256.996 449.325 254.464 450.984 251.704 452.17C251.334 452.4 250.908 452.522 250.473 452.522C250.038 452.522 249.612 452.4 249.242 452.17C254.614 447.035 259.565 441.478 264.048 435.553C264.84 434.571 265.577 433.546 266.253 432.481C266.425 432.211 266.485 431.885 266.418 431.572C266.352 431.259 266.166 430.984 265.899 430.808C265.692 430.563 265.4 430.407 265.081 430.37C264.763 430.334 264.443 430.42 264.186 430.611C263.459 431.193 262.799 431.853 262.217 432.58C259.599 435.73 257.118 439.018 254.342 442.109C251.566 445.2 249.164 447.622 246.486 450.28ZM260.406 474.871C255.622 479.222 250.936 483.711 246.112 488.003C242.568 491.153 238.926 494.205 235.185 497.099C225.997 504.266 216.724 511.373 207.365 518.422C204.609 520.528 201.773 522.537 198.938 524.564C196.969 526.002 194.686 526.927 192.323 525.569C191.088 524.841 190.086 523.777 189.434 522.501C188.782 521.225 188.507 519.789 188.641 518.363C188.675 516.116 189.554 513.965 191.102 512.338C193.065 510.074 195.162 507.93 197.383 505.919C208.468 496.075 219.729 486.349 230.696 476.387C241.662 466.424 253.259 457.564 263.989 447.504C273.203 438.86 282.3 430.099 291.829 421.771C302.283 412.615 312.64 403.342 323.035 394.207C324.868 392.462 326.928 390.972 329.158 389.777C329.785 389.348 330.504 389.073 331.257 388.974C332.01 388.874 332.775 388.953 333.492 389.204C334.209 389.455 334.856 389.871 335.383 390.419C335.909 390.966 336.299 391.63 336.522 392.356C336.789 392.929 336.928 393.554 336.928 394.187C336.928 394.82 336.789 395.445 336.522 396.018C335.631 398.045 334.436 399.924 332.978 401.59C327.378 408.458 321.424 415.03 315.14 421.278C306.733 429.626 298.405 438.073 289.998 446.401C285.076 451.303 279.976 456.029 275.094 460.97C270.211 465.912 265.426 470.185 260.406 474.871ZM300.984 487.196C299.507 487.333 298.011 487.353 296.475 487.432C296.751 486.251 297.578 486.132 298.287 485.798C301.831 484.065 305.355 482.306 308.859 480.521C310.062 480.085 311.064 479.224 311.675 478.099C311.763 477.894 311.808 477.673 311.808 477.45C311.808 477.226 311.763 477.005 311.675 476.8C311.362 476.447 310.924 476.228 310.454 476.19C309.273 476.072 308.485 476.918 307.461 477.45C301.84 480.674 295.902 483.312 289.742 485.325C286.119 486.526 282.319 486.782 278.637 487.668C277.195 487.824 275.748 487.414 274.601 486.526C275.153 485.443 276.295 485.305 277.24 484.931C283.342 482.319 289.166 479.1 294.625 475.323C295.015 475.063 295.39 474.781 295.747 474.477C296.058 474.267 296.291 473.96 296.408 473.603C296.526 473.247 296.522 472.862 296.397 472.508C296.276 472.302 296.115 472.123 295.922 471.982C295.729 471.842 295.509 471.743 295.276 471.691C295.044 471.639 294.802 471.636 294.568 471.682C294.334 471.727 294.112 471.821 293.916 471.957C291.474 473.414 289.092 474.949 286.69 476.465C282.167 479.362 277.333 481.739 272.278 483.553C271.392 483.849 270.486 484.36 269.719 483.396C268.951 482.431 269.187 481.643 270.25 480.462C272.703 477.775 275.473 475.395 278.5 473.374C282.281 470.772 286.227 468.418 290.313 466.326C291.317 465.814 292.4 465.361 292.124 463.943C291.947 462.939 290.391 462.565 288.875 463.333C283.049 466.167 277.588 469.697 272.613 473.847C271.658 474.964 270.459 475.847 269.108 476.426C269.105 473.904 269.982 471.46 271.589 469.515C272.513 468.234 273.576 467.059 274.759 466.011C280.311 461.069 285.469 455.714 290.687 450.437L315.711 425.019C316.046 424.665 316.4 424.35 316.715 423.995C317.463 423.188 318.231 422.932 319.117 423.818C319.688 424.37 320.298 424.862 320.889 425.393C340.265 442.865 362.169 457.309 385.861 468.236C386.432 468.491 386.964 468.826 387.83 469.24C387.144 469.701 386.419 470.103 385.664 470.441C373.576 474.556 361.644 479.261 349.004 481.447C341.542 482.726 334.021 483.75 326.5 484.616C317.975 485.601 309.47 486.31 300.984 487.097V487.196ZM395.824 499.009C395.498 504.373 394.727 509.7 393.52 514.937C390.823 526.592 384.188 535.905 375.8 544.115C370.765 548.937 365.071 553.021 358.888 556.243C350.557 560.762 341.888 564.626 332.958 567.8C324.247 571.1 315.286 573.701 306.162 575.577C297.012 577.381 287.725 578.395 278.401 578.609C263.694 578.609 249.892 575.341 237.784 566.481C236.228 565.407 234.784 564.18 233.472 562.819C231.739 561.051 230.673 558.737 230.454 556.271C230.235 553.805 230.877 551.339 232.271 549.293C233.348 547.541 234.728 545.994 236.346 544.725C240.327 541.577 244.931 539.309 249.853 538.071C259.146 535.61 268.478 533.168 277.751 530.609C280.795 529.771 283.792 528.772 286.729 527.616C291.767 525.693 296.362 522.766 300.234 519.012C304.106 515.259 307.174 510.757 309.253 505.782C311.254 501.476 312.69 496.929 313.526 492.256C313.556 491.474 313.894 490.736 314.465 490.201C315.036 489.667 315.795 489.379 316.577 489.401C320.987 489.007 325.358 488.416 329.749 487.885C341.073 486.884 352.278 484.827 363.219 481.742C373.457 478.552 383.656 475.186 393.638 471.228C394.672 470.613 395.861 470.305 397.064 470.342C396.71 479.95 396.434 489.401 395.824 498.851V499.009ZM466.86 423.031C465.501 424.33 464.103 425.61 462.627 426.771C452.938 434.4 442.764 441.391 432.169 447.7C421.501 454.192 410.47 460.069 399.131 465.302C398.422 465.637 397.655 465.873 396.965 466.267C395.754 466.98 394.374 467.356 392.969 467.356C391.563 467.356 390.183 466.98 388.972 466.267C369.64 457.56 351.493 446.432 334.966 433.151C331.029 430 327.189 426.673 323.37 423.306C320.318 420.668 320.22 420.727 323.015 417.912C327.583 413.305 331.737 408.323 335.852 403.322C337.19 401.758 338.315 400.023 339.199 398.164C340.138 396.398 340.427 394.359 340.017 392.402C339.607 390.445 338.523 388.694 336.955 387.453C335.987 386.512 334.768 385.87 333.445 385.604C332.121 385.339 330.749 385.461 329.493 385.957C326.282 387.316 323.351 389.258 320.85 391.687C316.538 395.408 312.305 399.227 308.052 402.988C307.225 403.716 306.359 404.386 305.512 405.094C305.058 404.873 304.628 404.602 304.233 404.287C293.345 392.572 284.111 379.423 276.787 365.205C275.389 362.39 274.208 359.456 272.849 356.582C272.461 355.811 272.284 354.952 272.335 354.091C272.387 353.23 272.666 352.398 273.144 351.679C281.512 337.346 289.624 322.875 298.149 308.64C303.327 299.977 309.115 291.649 314.648 283.183C315.061 282.553 315.357 281.726 316.341 281.726C316.518 281.923 316.833 282.08 316.892 282.317C320.468 295.292 326.076 307.619 333.509 318.839C341.015 330.558 349.555 341.581 359.026 351.778C359.99 352.841 360.995 353.865 361.92 354.928C363.2 356.405 363.062 357.074 361.27 357.547C353.789 359.515 346.327 361.484 338.806 363.453C326.815 366.347 314.805 369.084 302.815 371.86C301.256 372.12 299.747 372.625 298.346 373.356C298.075 373.521 297.855 373.757 297.709 374.038C297.564 374.32 297.498 374.635 297.519 374.951C297.537 375.269 297.65 375.573 297.843 375.826C298.036 376.078 298.3 376.267 298.602 376.369C299.499 376.653 300.436 376.793 301.378 376.782C308.505 376.782 315.613 376.782 322.72 376.27C327.76 375.936 332.82 375.857 337.861 375.66C340.774 375.66 343.767 374.105 346.504 376.585C338.766 378.22 331.048 379.913 323.311 381.448C316.183 382.846 309.017 384.067 301.87 385.386C300.628 385.62 299.404 385.942 298.208 386.351C298.018 386.403 297.84 386.493 297.685 386.614C297.53 386.736 297.401 386.888 297.306 387.06C297.21 387.233 297.15 387.423 297.129 387.619C297.109 387.815 297.127 388.013 297.184 388.202C297.381 389.206 298.228 389.285 299.015 389.265C299.802 389.226 300.586 389.127 301.358 388.97C321.736 385.327 342.035 381.33 362.196 376.664C364.342 376.152 366.468 375.503 368.575 374.813C369.467 374.517 370.315 374.099 371.095 373.573C371.306 373.395 371.469 373.166 371.569 372.909C371.67 372.651 371.704 372.373 371.668 372.098C371.633 371.824 371.53 371.563 371.368 371.339C371.206 371.115 370.99 370.936 370.74 370.817C370.188 370.527 369.588 370.341 368.968 370.265C367.703 370.177 366.434 370.177 365.169 370.265C358.711 370.659 352.233 371.014 345.775 371.525C341.345 371.88 336.935 372.155 332.505 372.116C328.942 372.116 325.221 373.77 321.913 371.112C328.351 369.537 334.809 368.041 341.227 366.367C347.646 364.694 354.615 362.666 361.29 360.795C362.228 360.652 363.13 360.331 363.948 359.85C365.365 358.689 366.153 359.555 367.098 360.461C371.213 364.398 375.249 368.336 379.462 372.274C395.183 386.746 412.706 399.127 431.598 409.111C442.3 414.938 453.814 419.132 465.757 421.554C466.072 421.58 466.376 421.681 466.643 421.849C466.919 421.987 467.313 422.479 466.86 422.873V423.031ZM579.754 206.457C580.84 217.309 581.267 228.216 581.034 239.12C580.19 251.1 578.373 262.992 575.6 274.678C571.606 292.26 564.897 309.112 555.714 324.627C544.983 343.275 531.96 360.505 516.947 375.916C504.504 388.753 491.51 400.979 478.417 413.147C477.039 414.427 475.424 415.51 474.125 416.868C473.478 417.558 472.66 418.064 471.754 418.334C470.847 418.604 469.885 418.628 468.966 418.404C463.197 417.474 457.523 416.024 452.015 414.072C441.762 410.434 431.917 405.736 422.639 400.054C390.482 380.59 362.714 354.665 341.09 323.919C333.81 313.777 327.855 302.748 323.37 291.098C322.016 287.394 320.86 283.622 319.905 279.797C319.574 278.756 319.512 277.649 319.726 276.578C319.939 275.507 320.421 274.508 321.125 273.673C326.561 266.287 332.37 259.184 338.53 252.39C349.266 240.989 361.141 230.717 373.969 221.735C387.019 212.805 401.334 205.883 416.437 201.2C432.971 195.885 449.878 191.811 467.017 189.013C468.711 188.737 470.463 188.757 472.195 188.639C473.14 187.694 474.499 188.107 475.582 187.635C477.102 187.123 478.748 187.123 480.268 187.635C480.589 187.292 481.009 187.058 481.469 186.965C484.619 186.827 487.789 186.847 490.919 186.512C498.795 185.705 506.67 185.607 514.545 185.331C531.299 184.906 548.062 185.735 564.692 187.812C567.823 188.186 570.914 188.914 574.025 189.446C574.506 189.474 574.961 189.678 575.302 190.019C575.643 190.36 575.847 190.815 575.875 191.297C576.437 194.565 577.321 197.77 578.514 200.865C579.123 202.68 579.539 204.554 579.754 206.457Z" fill="black"/>
<path d="M251.92 788.982C250.609 787.404 249.145 785.96 247.549 784.67C242.274 780.049 238.663 773.823 237.272 766.95C235.461 758.199 236.032 749.121 238.926 740.666C240.206 736.61 241.82 732.653 243.395 728.676C244.863 725.349 245.902 721.849 246.486 718.26C246.896 715.952 246.779 713.58 246.144 711.323C245.508 709.067 244.371 706.983 242.816 705.227C241.261 703.472 239.33 702.091 237.167 701.187C235.003 700.284 232.663 699.881 230.322 700.009C226.701 700.225 223.15 701.106 219.848 702.608C204.975 709.61 190.767 717.946 177.399 727.514C166.767 735.212 156.116 742.832 144.874 749.624C139.497 752.983 133.448 755.12 127.154 755.885C120.851 756.912 114.386 755.847 108.745 752.853C101.591 748.962 96.0197 742.695 92.9945 735.133C89.5564 725.721 88.7797 715.543 90.75 705.719C93.0382 692.594 98.1431 680.12 105.713 669.157C115.489 654.775 127.12 641.747 140.306 630.41C152.001 620.251 164.247 610.722 176.297 601.015C191.155 589.148 204.872 575.919 217.269 561.5C220.34 557.917 223.175 554.058 225.991 550.337C226.709 548.61 227.707 547.014 228.944 545.612V545.612C229.38 544.022 230.278 542.597 231.523 541.516C231.666 541.067 231.851 540.632 232.074 540.217C239.885 527.577 246.089 514.012 250.542 499.836C250.709 499.24 250.789 498.623 250.778 498.005C250.778 497.512 249.814 497.06 249.321 497.197C249.012 497.264 248.724 497.405 248.48 497.607C248.237 497.809 248.046 498.067 247.924 498.359C247.236 499.782 246.625 501.241 246.093 502.73C242.621 513.063 238.137 523.028 232.704 532.479C225.775 545.135 217.282 556.87 207.424 567.407C195.454 580.037 182.583 591.783 168.913 602.551C158.085 611.017 147.374 619.64 137.038 628.717C125.468 638.814 115.084 650.195 106.087 662.64C98.0035 673.403 92.0859 685.633 88.663 698.651C86.0689 708.279 85.6053 718.357 87.3045 728.183C88.2295 733.515 90.2437 738.6 93.2213 743.119C96.1989 747.637 100.076 751.494 104.611 754.448C108.672 757.216 113.378 758.89 118.275 759.311C127.949 760.337 137.689 758.091 145.937 752.932C150.347 750.175 154.816 747.498 159.246 744.781C161.215 744.426 160.881 744.092 160.684 745.923C155.112 752.184 149.245 758.169 143.299 764.056C137.338 769.746 130.471 774.404 122.98 777.838C118.975 779.747 114.617 780.806 110.183 780.949C104.807 781.137 99.4266 780.741 94.1364 779.767C88.0223 778.84 82.2063 776.508 77.1452 772.955C72.8925 769.918 68.99 766.418 65.5093 762.52C61.3601 757.925 58.3162 752.443 56.61 746.492C54.9038 740.541 54.5806 734.278 55.665 728.183C57.3321 718.037 60.4693 708.187 64.9777 698.946C68.6595 691.07 72.8531 683.51 77.3224 676.009C82.4217 667.267 87.5998 658.584 92.5613 649.784C99.4118 637.502 105.005 624.56 109.257 611.155C113.53 597.904 116.581 584.339 119.653 570.793C121.986 559.501 125.138 548.393 129.084 537.559C132.962 526.677 138.515 516.467 145.543 507.298C151.908 499.407 159.177 492.29 167.201 486.093C176.552 479.074 186.761 473.278 197.58 468.846C201.636 467.094 205.692 465.341 209.728 463.55C210.574 463.176 211.598 462.939 212.031 461.994C212.183 461.568 212.183 461.102 212.031 460.675C212.031 460.459 211.579 460.281 211.283 460.183C210.904 460.07 210.506 460.037 210.113 460.084C209.72 460.132 209.341 460.259 208.999 460.459C206.538 461.502 204.077 462.624 201.596 463.609C193.181 466.801 185.031 470.652 177.222 475.127C176.932 475.247 176.628 475.326 176.316 475.363C175.568 475.934 174.879 476.564 174.092 477.056C165.663 482.392 157.903 488.717 150.977 495.898C142.539 504.438 135.656 514.386 130.639 525.293C126.488 534.162 123.147 543.387 120.657 552.857C117.684 564.67 114.967 576.483 112.171 588.296C108.579 604.01 103.442 619.33 96.8338 634.033C91.6065 644.888 85.8032 655.456 79.4488 665.692C74.8417 673.43 70.2345 681.167 66.0409 689.141C62.2804 696.097 59.0743 703.338 56.4526 710.798C53.8797 717.925 52.3414 725.384 51.8848 732.948C51.295 741.854 53.542 750.718 58.3033 758.267C63.6807 766.505 70.9253 773.359 79.4488 778.271C81.5218 779.419 83.7051 780.356 85.9657 781.067C93.062 783.316 100.475 784.407 107.918 784.296C113.632 784.493 119.31 783.318 124.476 780.87C132.359 777.209 139.583 772.273 145.858 766.261C148.752 763.367 151.765 760.512 154.521 757.48C162.115 749.207 170.279 741.477 178.955 734.346C179.683 733.755 180.392 733.125 181.101 732.475C193.091 721.489 206.912 713.279 221.285 705.876C223.695 704.675 226.291 703.89 228.964 703.553C230.68 703.254 232.442 703.331 234.126 703.778C235.81 704.225 237.377 705.033 238.719 706.145C240.061 707.256 241.146 708.646 241.899 710.218C242.652 711.789 243.055 713.505 243.08 715.248C243.237 717.305 242.982 719.373 242.332 721.332C241.348 723.99 240.462 726.687 239.398 729.325C237.666 733.395 236.193 737.571 234.988 741.827C232.932 748.987 232.356 756.49 233.295 763.879C234.673 773.329 238.375 781.46 245.837 787.505C248.284 789.285 250.19 791.708 251.344 794.506C252.498 797.304 252.854 800.366 252.373 803.354C252.301 804.125 252.348 804.901 252.511 805.658C252.555 805.799 252.634 805.928 252.741 806.031C252.847 806.134 252.978 806.209 253.121 806.248C253.561 806.358 254.026 806.294 254.421 806.071C254.875 805.643 255.202 805.098 255.366 804.496C256.071 801.823 256.126 799.019 255.527 796.32C254.927 793.621 253.691 791.105 251.92 788.982V788.982Z" fill="#010000"/>
<path d="M537.444 306.612C534.431 286.668 523.819 272.276 505.627 263.652C492.9 257.72 478.555 256.209 464.872 259.36C444.781 263.288 427.023 274.919 415.394 291.767C407.041 303.03 402.472 316.65 402.341 330.672C402.341 354.79 413.15 372.372 434.866 382.984C443.372 387.119 452.586 388.595 463.297 388.536C466.03 388.452 468.758 388.222 471.467 387.847C500.508 382.61 521.358 366.682 533.151 339.551C537.691 329.205 539.18 317.777 537.444 306.612V306.612ZM522.303 352.388C511.097 368.768 493.898 380.083 474.421 383.89C461.351 386.871 447.659 385.359 435.555 379.598C418.643 371.447 408.818 357.94 406.023 339.354C404.284 327.057 406.512 314.525 412.382 303.58C424.195 280.387 443.391 266.586 469.026 262.234C479.53 260.39 490.337 261.41 500.311 265.188C523.583 273.929 535.022 294.72 534.667 311.849C534.313 328.978 530.139 341.264 522.303 352.388Z" fill="#010101"/>
<path d="M152.297 554.078C152.017 554.09 151.742 554.004 151.52 553.835C151.297 553.666 151.14 553.424 151.076 553.152C150.91 552.221 151.048 551.262 151.47 550.416C152.961 546.094 154.771 541.889 156.884 537.835C162.32 526.963 168.559 516.513 175.549 506.569C181.06 498.861 187.233 491.647 193.997 485.01C197.925 481.092 202.41 477.775 207.306 475.166C209.118 474.201 210.87 473.197 212.642 472.134C212.926 471.981 213.258 471.943 213.569 472.027C213.88 472.111 214.147 472.311 214.315 472.587C214.525 472.827 214.64 473.135 214.64 473.453C214.64 473.771 214.525 474.079 214.315 474.319C213.883 474.778 213.401 475.187 212.878 475.54C211.697 476.308 210.496 477.076 209.255 477.745C203.871 480.76 198.973 484.57 194.725 489.046C187.641 496.254 181.241 504.104 175.608 512.495C167.358 524.63 160.353 537.565 154.699 551.105C154.343 551.977 153.894 552.809 153.36 553.585C153.104 553.959 152.513 553.999 152.297 554.078ZM226.109 518.185C226.233 518.568 226.25 518.977 226.16 519.368C226.07 519.76 225.875 520.12 225.597 520.41C222.82 524.446 219.747 528.27 216.402 531.849C209.416 539.213 201.801 545.952 193.643 551.991C185.157 558.311 176.454 564.335 167.398 569.828C164.307 571.797 161.058 573.333 157.849 575.046C157.002 575.461 156.127 575.816 155.23 576.109C154.87 576.279 154.46 576.312 154.076 576.204C153.693 576.095 153.362 575.852 153.143 575.518C153.058 575.341 153.011 575.148 153.003 574.951C152.995 574.754 153.027 574.558 153.096 574.374C153.166 574.19 153.273 574.022 153.409 573.88C153.546 573.739 153.71 573.626 153.891 573.55C155.388 572.664 156.943 571.876 158.459 571.029C174.353 562.225 189.302 551.814 203.073 539.961C210.363 533.87 216.906 526.937 222.565 519.308C222.994 518.458 223.684 517.768 224.534 517.339C224.855 517.261 225.193 517.304 225.483 517.461C225.774 517.617 225.997 517.875 226.109 518.185Z" fill="#050404"/>
<path d="M154.462 568.017C153.576 567.564 153.005 566.974 153.182 566.048C153.483 564.501 153.884 562.975 154.383 561.48C155.269 559.118 156.214 556.775 157.297 554.491C162.356 543.932 168.798 534.093 176.454 525.234C177.354 523.965 178.515 522.904 179.86 522.123C180.153 521.992 180.484 521.974 180.789 522.072C181.094 522.17 181.352 522.378 181.514 522.655C181.77 523.068 181.986 523.521 181.671 523.934C181.12 524.702 180.51 525.431 179.899 526.14C172.954 534.358 166.926 543.31 161.924 552.837C159.836 556.736 158.103 560.815 156.746 565.024C156.582 565.96 156.175 566.836 155.564 567.564C155.221 567.768 154.849 567.92 154.462 568.017V568.017Z" fill="#080707"/>
<path d="M321.834 371.014C328.272 369.438 334.73 367.942 341.149 366.269C347.567 364.595 354.537 362.567 361.211 360.697C362.151 360.562 363.055 360.241 363.869 359.752C365.287 358.59 366.074 359.456 367.019 360.362C371.134 364.3 375.17 368.237 379.384 372.175C395.104 386.647 412.627 399.029 431.519 409.012C442.224 414.838 453.737 419.038 465.679 421.475C465.994 421.482 466.301 421.577 466.565 421.751C466.919 422.027 467.293 422.538 466.86 422.932C465.501 424.232 464.103 425.511 462.627 426.673C452.935 434.297 442.761 441.288 432.169 447.602C421.501 454.094 410.47 459.971 399.131 465.204C398.423 465.538 397.655 465.774 396.966 466.168C395.754 466.882 394.374 467.258 392.969 467.258C391.563 467.258 390.183 466.882 388.972 466.168C369.64 457.461 351.493 446.333 334.966 433.052C331.029 429.902 327.189 426.575 323.37 423.208C320.318 420.57 320.22 420.629 323.015 417.813C327.583 413.206 331.737 408.225 335.852 403.224C337.19 401.659 338.315 399.925 339.199 398.066C340.138 396.3 340.427 394.261 340.017 392.304C339.607 390.347 338.523 388.596 336.955 387.355C335.987 386.413 334.768 385.771 333.445 385.506C332.121 385.24 330.749 385.363 329.493 385.859C326.282 387.217 323.352 389.16 320.85 391.588C316.538 395.309 312.305 399.129 308.052 402.889C307.225 403.618 306.359 404.287 305.512 404.996C305.058 404.774 304.628 404.504 304.233 404.189C293.345 392.473 284.111 379.324 276.787 365.107C275.389 362.292 274.208 359.358 272.849 356.483C272.461 355.713 272.284 354.854 272.335 353.992C272.387 353.131 272.666 352.299 273.144 351.581C281.512 337.248 289.624 322.777 298.149 308.542C303.327 299.879 309.115 291.551 314.648 283.085C315.061 282.455 315.357 281.628 316.341 281.628C316.518 281.825 316.833 281.982 316.892 282.218C320.468 295.194 326.076 307.52 333.509 318.741C341.01 330.494 349.55 341.55 359.026 351.778C359.991 352.841 360.995 353.865 361.92 354.928C363.2 356.405 363.062 357.074 361.27 357.547C353.789 359.515 346.327 361.484 338.806 363.453C326.815 366.347 314.825 369.084 302.815 371.86C301.256 372.12 299.747 372.625 298.346 373.357C298.075 373.521 297.855 373.757 297.709 374.038C297.564 374.32 297.498 374.635 297.519 374.951C297.537 375.269 297.651 375.573 297.843 375.826C298.036 376.078 298.3 376.267 298.602 376.369C299.499 376.653 300.436 376.793 301.378 376.782C308.505 376.782 315.613 376.782 322.72 376.27C327.76 375.936 332.82 375.857 337.861 375.66C340.775 375.66 343.767 374.105 346.504 376.585C338.766 378.22 331.048 379.913 323.311 381.449C316.184 382.846 309.017 384.067 301.87 385.386C300.628 385.62 299.404 385.942 298.208 386.351C298.018 386.403 297.84 386.493 297.685 386.614C297.53 386.736 297.401 386.888 297.306 387.06C297.21 387.233 297.15 387.423 297.129 387.619C297.109 387.815 297.127 388.013 297.184 388.202C297.381 389.206 298.228 389.285 299.015 389.265C299.802 389.226 300.586 389.127 301.358 388.97C321.736 385.327 342.035 381.33 362.196 376.664C364.342 376.152 366.468 375.503 368.575 374.813C369.467 374.517 370.315 374.099 371.095 373.573C371.306 373.395 371.469 373.166 371.569 372.909C371.67 372.651 371.704 372.373 371.668 372.098C371.633 371.824 371.53 371.563 371.368 371.339C371.206 371.115 370.99 370.936 370.74 370.817C370.188 370.527 369.588 370.341 368.968 370.265C367.703 370.177 366.434 370.177 365.169 370.265C358.711 370.659 352.233 371.014 345.775 371.525C341.345 371.88 336.935 372.156 332.505 372.116C328.863 372.018 325.142 373.672 321.834 371.014ZM278.067 335.279C278.106 335.866 278.029 336.456 277.839 337.013C277.65 337.571 277.353 338.085 276.964 338.527C272.436 346.127 268.006 353.786 263.3 361.268C254.465 374.929 246.622 389.208 239.831 403.992C239.575 404.563 239.339 405.153 239.024 405.705C238.849 406.068 238.566 406.369 238.213 406.566C237.861 406.763 237.457 406.848 237.055 406.807C223.273 406.689 212.582 413.265 203.191 422.558C194.337 431.594 187.11 442.091 181.829 453.587C180.35 456.563 179.163 459.675 178.285 462.88C177.701 465.66 176.335 468.215 174.347 470.244C169.09 475.323 161.077 474.004 156.825 470.894C153.541 468.645 150.944 465.53 149.323 461.896C147.575 457.827 146.517 453.495 146.193 449.079C145.834 439.764 146.117 430.436 147.039 421.16C147.551 414.525 148.103 407.93 149.146 401.373C150.623 392.317 152.257 383.299 154.541 374.439C159.837 353.963 172.989 340.654 192.756 333.822C203.989 329.951 215.783 327.956 227.664 327.915C231.779 327.915 235.874 327.915 239.989 327.915C252.176 328.082 264.259 330.189 275.783 334.157C276.472 334.55 277.318 334.964 278.067 335.279ZM397.162 470.185C396.71 480.029 396.375 489.401 395.824 498.851C395.498 504.215 394.728 509.543 393.52 514.779C390.823 526.435 384.188 535.748 375.8 543.958C370.765 548.78 365.071 552.863 358.888 556.086C350.557 560.604 341.888 564.468 332.958 567.643C324.247 570.943 315.286 573.543 306.162 575.42C297.012 577.223 287.725 578.238 278.401 578.452C263.694 578.452 249.892 575.184 237.784 566.324C236.228 565.249 234.784 564.023 233.472 562.662C231.739 560.893 230.673 558.579 230.454 556.113C230.235 553.647 230.877 551.182 232.271 549.136C233.348 547.384 234.728 545.837 236.347 544.568C240.327 541.419 244.931 539.151 249.853 537.913C259.146 535.452 268.478 533.011 277.752 530.451C280.795 529.614 283.792 528.615 286.729 527.459C291.767 525.535 296.362 522.608 300.234 518.855C304.106 515.101 307.174 510.6 309.253 505.624C311.25 501.317 312.686 496.771 313.526 492.098C313.556 491.316 313.894 490.578 314.465 490.044C315.036 489.51 315.795 489.222 316.577 489.243C320.988 488.849 325.358 488.259 329.749 487.727C341.073 486.726 352.278 484.67 363.219 481.584C373.457 478.395 383.656 475.028 393.638 471.071C394.701 470.437 395.926 470.129 397.162 470.185V470.185Z" fill="#F5A623"/>
<path d="M321.834 371.014C322.641 372.018 323.803 371.86 324.866 371.88L332.426 372.018C330.525 372.648 328.519 372.902 326.52 372.766C324.236 372.923 321.952 373.002 319.668 373.12C318.804 373.396 317.875 373.396 317.01 373.12C316.93 373.048 316.866 372.96 316.822 372.862C316.779 372.763 316.756 372.657 316.756 372.549C316.756 372.442 316.779 372.335 316.822 372.237C316.866 372.138 316.93 372.05 317.01 371.978C318.531 371.318 320.176 370.989 321.834 371.014V371.014Z" fill="#C96A03"/>
<path d="M346.425 376.428C346.082 376.112 345.672 375.876 345.225 375.74C344.779 375.604 344.307 375.57 343.846 375.64L337.782 375.503C339.514 374.846 341.37 374.584 343.216 374.735C344.889 374.577 346.602 374.558 348.295 374.479C349.674 374.479 351.426 373.101 352.135 375.542C350.186 375.64 348.414 376.841 346.425 376.428Z" fill="#C77003"/>
<path d="M352.135 375.621C351.151 374.203 349.536 375.069 348.296 374.558C351.063 373.614 354.044 373.491 356.88 374.203C355.515 375.22 353.834 375.722 352.135 375.621V375.621Z" fill="#5D3E01"/>
<path d="M316.971 372.766L319.728 373.12C317.345 374.518 314.805 373.317 311.655 374.105C312.935 372.352 313.919 371.821 315.278 371.978C315.711 372.49 316.479 372.333 316.971 372.766Z" fill="#293801"/>
<path d="M228.668 549.293C228.619 548.902 228.689 548.506 228.868 548.155C229.047 547.804 229.327 547.514 229.672 547.324C229.773 547.719 229.726 548.136 229.541 548.498C229.357 548.861 229.046 549.143 228.668 549.293V549.293Z" fill="#010000"/>
<path d="M316.971 372.766C316.243 372.766 315.573 372.766 315.278 371.978H317.129C317.069 372.215 317.03 372.49 316.971 372.766Z" fill="#8F7603"/>
<path d="M417.304 245.637C417.127 245.932 416.97 246.444 416.635 246.661C416.446 246.795 416.23 246.885 416.002 246.926C415.774 246.967 415.54 246.957 415.316 246.897C413.454 245.69 411.475 244.674 409.409 243.865C401.318 240.753 392.839 238.766 384.208 237.958C383.277 237.873 382.355 237.708 381.452 237.466C381.137 237.404 380.859 237.221 380.678 236.955C380.498 236.69 380.429 236.364 380.487 236.049C380.511 235.733 380.644 235.435 380.863 235.205C381.082 234.975 381.373 234.828 381.688 234.789C382.467 234.71 383.252 234.71 384.031 234.789C393.492 235.471 402.791 237.616 411.595 241.148C413.045 241.757 414.447 242.474 415.788 243.294C416.198 243.548 416.547 243.89 416.809 244.296C417.071 244.701 417.24 245.159 417.304 245.637V245.637Z" fill="#0D0909"/>
<path d="M414.587 216.951C424.28 217.708 433.761 220.188 442.584 224.275C443.443 224.668 444.256 225.157 445.005 225.732C446.187 226.579 446.541 227.701 445.872 228.508C445.202 229.315 444.179 229.079 443.332 228.508C437.633 225.479 431.544 223.247 425.238 221.873C420.992 220.648 416.603 219.986 412.185 219.904C411.71 219.904 411.236 219.864 410.767 219.786C410.459 219.717 410.181 219.552 409.972 219.315C409.764 219.078 409.635 218.781 409.605 218.467C409.576 218.151 409.667 217.835 409.861 217.583C410.054 217.331 410.336 217.162 410.649 217.108C412.047 217.069 413.464 217.069 414.587 216.951Z" fill="#0C0808"/>
<path d="M380.211 244.515C388.103 244.605 395.898 246.258 403.148 249.378C404.82 249.863 406.317 250.82 407.46 252.134C407.687 252.356 407.831 252.65 407.867 252.965C407.903 253.281 407.829 253.6 407.657 253.867C407.164 254.556 406.456 254.989 405.688 254.517C402.683 252.808 399.474 251.485 396.139 250.579C389.533 248.432 382.605 247.446 375.663 247.665C374.6 247.665 373.359 248.019 372.946 246.543C372.631 245.44 373.556 244.731 375.525 244.574C377.061 244.515 378.714 244.515 380.211 244.515Z" fill="#0F0C0C"/>
<path d="M401.927 225.141C411.244 225.922 420.345 228.363 428.802 232.347C430.276 232.919 431.569 233.878 432.543 235.123C432.67 235.275 432.765 235.45 432.823 235.639C432.881 235.828 432.9 236.026 432.88 236.222C432.86 236.419 432.8 236.609 432.705 236.782C432.61 236.955 432.481 237.108 432.326 237.23C432.102 237.455 431.805 237.594 431.489 237.623C431.172 237.651 430.855 237.568 430.594 237.388C423.487 233.308 415.715 230.515 407.637 229.138C406.259 228.843 404.841 228.705 403.443 228.508C402.518 228.39 401.475 228.39 400.648 228.193C399.821 227.996 399.072 227.661 399.112 226.677C399.151 225.693 399.84 225.338 400.648 225.161C401.072 225.106 401.501 225.099 401.927 225.141V225.141Z" fill="#0D0909"/>
<path d="M431.263 208.898C433.449 209.371 436.087 209.863 438.686 210.513C444.793 212.146 450.677 214.52 456.209 217.581C457.298 218.214 458.35 218.911 459.359 219.668C459.692 219.893 459.975 220.184 460.192 220.522C460.409 220.861 460.554 221.24 460.619 221.637C460.692 221.947 460.682 222.271 460.588 222.575C460.495 222.88 460.322 223.154 460.087 223.369C459.852 223.581 459.547 223.698 459.231 223.698C458.914 223.698 458.609 223.581 458.374 223.369C457.291 222.474 456.153 221.645 454.968 220.889C447.836 216.794 440.071 213.919 431.992 212.383C431.204 212.245 430.417 212.147 429.649 211.95C428.881 211.753 428.093 211.418 428.212 210.414C428.33 209.41 429.058 209.134 429.865 208.938C430.33 208.893 430.797 208.88 431.263 208.898V208.898Z" fill="#0C0909"/>
<path d="M465.068 194.25C473.632 194.914 481.987 197.22 489.679 201.042C490.653 201.552 491.538 202.217 492.298 203.011C492.576 203.302 492.746 203.681 492.778 204.082C492.81 204.484 492.703 204.885 492.475 205.216C492.37 205.371 492.236 205.503 492.08 205.604C491.923 205.706 491.748 205.775 491.565 205.808C491.381 205.841 491.193 205.837 491.011 205.797C490.83 205.756 490.658 205.679 490.506 205.571C483.615 201.102 475.818 199.172 467.884 197.794C465.915 197.459 463.788 197.577 461.761 197.439C461.131 197.439 460.52 197.203 460.402 196.416C460.356 196.223 460.349 196.023 460.382 195.827C460.414 195.632 460.486 195.445 460.593 195.277C460.699 195.11 460.838 194.966 461.002 194.854C461.165 194.742 461.35 194.663 461.544 194.624C462.712 194.439 463.888 194.314 465.068 194.25V194.25Z" fill="#0C0707"/>
<path d="M452.035 201.988C460.038 202.862 467.799 205.269 474.893 209.075C475.487 209.299 476.029 209.644 476.483 210.088C476.937 210.532 477.294 211.066 477.531 211.655C477.635 211.953 477.659 212.274 477.6 212.585C477.541 212.896 477.402 213.186 477.196 213.427C477.004 213.683 476.719 213.853 476.402 213.901C476.086 213.949 475.763 213.871 475.503 213.683C467.757 208.747 458.939 205.743 449.79 204.921C449.48 204.889 449.176 204.816 448.884 204.705C448.593 204.581 448.347 204.371 448.178 204.104C448.009 203.837 447.926 203.524 447.939 203.208C447.944 202.889 448.072 202.585 448.295 202.357C448.519 202.13 448.822 201.998 449.14 201.988C449.77 201.928 450.4 201.988 452.035 201.988Z" fill="#0C0808"/>
<path d="M358.395 259.754C366.039 260.314 373.495 262.388 380.329 265.857C381.516 266.273 382.529 267.078 383.203 268.141C383.376 268.404 383.468 268.712 383.468 269.027C383.468 269.342 383.376 269.65 383.203 269.913C383.014 270.17 382.747 270.358 382.442 270.451C382.136 270.543 381.809 270.534 381.51 270.425C381.225 270.346 380.948 270.241 380.683 270.11C373.31 265.772 365.007 263.261 356.466 262.786C355.848 262.749 355.248 262.567 354.714 262.254C354.538 262.113 354.396 261.932 354.301 261.728C354.205 261.523 354.158 261.299 354.162 261.073C354.283 260.654 354.539 260.287 354.891 260.029C355.16 259.857 355.477 259.774 355.797 259.793C356.702 259.734 357.647 259.754 358.395 259.754Z" fill="#0D0808"/>
<path d="M369.244 252.036C375.866 252.494 382.399 253.818 388.677 255.973C390.044 256.398 391.325 257.065 392.457 257.942C393.323 258.651 393.697 259.734 393.225 260.364C392.966 260.664 392.617 260.873 392.23 260.958C391.843 261.043 391.439 261.001 391.079 260.837C390.929 260.801 390.783 260.748 390.645 260.679C383.457 257.48 375.757 255.587 367.905 255.087C367.438 255.068 366.974 254.989 366.527 254.851C366.225 254.766 365.959 254.587 365.767 254.338C365.575 254.09 365.469 253.787 365.464 253.473C365.45 253.316 365.468 253.158 365.517 253.009C365.565 252.859 365.643 252.72 365.746 252.601C365.849 252.482 365.974 252.384 366.115 252.314C366.256 252.244 366.409 252.203 366.566 252.193C367.649 252.075 368.732 252.055 369.244 252.036Z" fill="#0E0909"/>
<path d="M370.012 276.194C369.97 276.465 369.831 276.712 369.621 276.889C369.411 277.066 369.145 277.162 368.87 277.158C368.251 277.22 367.626 277.118 367.059 276.863C360.361 273.39 352.946 271.522 345.401 271.409C345.087 271.434 344.77 271.387 344.476 271.271C344.082 271.075 343.57 270.838 343.649 270.267C343.728 269.696 343.787 269.263 344.082 269.047C344.584 268.683 345.177 268.465 345.795 268.417C347.674 268.318 349.558 268.377 351.426 268.594C356.089 269.216 360.662 270.386 365.051 272.079C366.522 272.608 367.899 273.373 369.126 274.343C369.403 274.565 369.627 274.847 369.781 275.167C369.934 275.487 370.013 275.838 370.012 276.194V276.194Z" fill="#0E0808"/>
<path d="M345.047 275.347C348.307 275.642 351.523 276.302 354.635 277.316C355.723 277.567 356.694 278.177 357.392 279.048C357.505 279.243 357.576 279.459 357.6 279.683C357.624 279.907 357.6 280.134 357.53 280.348C357.42 280.543 357.267 280.71 357.083 280.836C356.899 280.962 356.688 281.045 356.466 281.076C355.685 281.121 354.903 281.014 354.163 280.761C350.634 279.354 346.856 278.684 343.059 278.792C342.599 278.767 342.15 278.647 341.739 278.438C341.573 278.344 341.43 278.215 341.319 278.059C341.208 277.903 341.133 277.725 341.1 277.537C341.066 277.349 341.074 277.156 341.123 276.971C341.172 276.787 341.262 276.615 341.385 276.469C341.881 276.034 342.464 275.708 343.096 275.515C343.727 275.322 344.392 275.264 345.047 275.347V275.347Z" fill="#1B1313"/>
<path d="M343.885 284.994C341.798 284.719 340.243 284.581 338.727 284.286C338.535 284.268 338.349 284.213 338.178 284.124C338.008 284.034 337.857 283.911 337.735 283.763C337.612 283.615 337.52 283.444 337.464 283.26C337.408 283.076 337.389 282.882 337.407 282.691C337.455 282.301 337.644 281.942 337.937 281.681C338.231 281.42 338.609 281.275 339.002 281.273C340.854 281.153 342.71 281.414 344.456 282.041C344.836 282.139 345.163 282.38 345.369 282.715C345.574 283.049 345.642 283.449 345.559 283.833C345.362 284.738 344.594 284.935 343.787 284.975C343.629 284.994 343.472 284.955 343.885 284.994Z" fill="#261E1E"/>
<path d="M409.941 444.846C403.798 445.377 397.675 445.968 391.552 446.401C386.669 446.736 381.707 446.913 376.903 447.09C375.957 447.107 375.013 447.014 374.088 446.814C373.701 446.738 373.345 446.547 373.068 446.266C372.79 445.985 372.604 445.628 372.532 445.239C372.421 444.837 372.469 444.408 372.668 444.041C372.866 443.674 373.198 443.398 373.596 443.271C375.08 442.743 376.6 442.322 378.144 442.01C389.602 439.805 401.002 437.325 412.284 434.391C415.65 433.505 418.978 432.422 422.305 431.536C422.721 431.204 423.154 430.895 423.605 430.611C421.932 430.001 420.099 430.001 418.426 430.611C412.914 431.103 407.401 431.516 401.908 432.087C390.902 433.229 379.916 434.45 368.91 435.631C366.567 435.887 364.204 436.183 361.842 436.38C361.068 436.405 360.294 436.332 359.538 436.163C359.405 436.101 359.289 436.008 359.199 435.891C359.11 435.775 359.051 435.638 359.026 435.494C358.975 435.051 359.065 434.603 359.282 434.214C359.774 433.505 360.621 433.485 361.408 433.387C368.614 432.501 375.82 431.536 383.066 430.729C394.052 429.508 405.051 428.34 416.064 427.224C421.084 426.712 426.144 426.378 431.185 426.004C432.443 425.915 433.706 425.915 434.965 426.004C435.444 426.016 435.907 426.178 436.288 426.468C436.67 426.758 436.951 427.16 437.091 427.618C437.239 428.082 437.211 428.583 437.011 429.027C436.811 429.471 436.454 429.824 436.008 430.02C434.507 430.878 432.94 431.615 431.322 432.225C424.609 434.627 417.777 436.537 410.886 438.27C408.425 438.9 406.003 439.569 403.562 440.238C402.065 441.459 400.096 441.321 398.423 441.991C397.594 442.014 396.772 442.154 395.981 442.404C395.858 442.474 395.713 442.499 395.573 442.474C395.432 442.449 395.305 442.375 395.214 442.266C395.312 442.365 395.45 442.562 395.509 442.542C397.064 442.03 398.738 442.148 400.274 441.577C402.242 440.553 404.467 442.266 406.515 441.282C409.488 441.046 412.421 440.829 415.453 440.534C418.273 440.163 421.12 440.058 423.959 440.219C424.419 440.27 424.853 440.459 425.205 440.762C425.556 441.064 425.808 441.465 425.928 441.912C426.051 442.293 426.054 442.703 425.938 443.087C425.822 443.47 425.592 443.809 425.278 444.058C424.496 444.819 423.623 445.48 422.679 446.027C420.733 447.062 418.713 447.95 416.635 448.685C407.636 451.507 398.415 453.569 389.071 454.847C386.846 455.162 385.507 454.572 385.665 453.43C385.901 451.776 387.338 451.776 388.539 451.599C396.169 450.388 403.733 448.792 411.201 446.814C412.421 446.499 413.603 446.066 414.804 445.692C414.804 445.318 416.418 445.042 415.001 444.649C413.337 444.164 411.561 444.233 409.941 444.846ZM405.314 399.326C405.918 399.462 406.496 399.695 407.027 400.015C407.259 400.171 407.452 400.378 407.589 400.622C407.727 400.866 407.806 401.138 407.819 401.417C407.832 401.697 407.78 401.975 407.667 402.231C407.553 402.487 407.381 402.712 407.165 402.889C405.826 404.006 404.261 404.819 402.577 405.272C397.784 406.877 392.864 408.076 387.87 408.855C375.407 410.824 362.924 412.793 350.462 414.762L335.006 417.085C333.924 417.331 332.8 417.331 331.718 417.085C331.408 417.022 331.123 416.868 330.898 416.644C330.674 416.42 330.521 416.135 330.458 415.825C330.399 415.51 330.457 415.185 330.62 414.91C330.783 414.635 331.04 414.428 331.344 414.328C332.086 414.063 332.85 413.865 333.628 413.738C348.926 411.454 364.224 409.209 379.522 406.866C384.346 406.118 389.13 405.055 393.934 404.13C394.919 404.042 395.85 403.642 396.592 402.988C396.198 402.023 395.312 402.535 394.741 402.535C381.615 402.719 368.49 402.922 355.364 403.145C353.927 403.145 352.509 403.145 351.092 403.145C350.297 403.152 349.53 402.856 348.946 402.318C348.276 401.708 348.256 400.231 349.044 399.838C349.999 399.308 351.028 398.923 352.096 398.696C358.967 397.652 365.878 396.569 372.729 395.762C381.038 394.778 389.386 394.049 397.714 393.242C398.332 393.152 398.963 393.192 399.565 393.36C399.769 393.458 399.95 393.598 400.096 393.771C400.242 393.944 400.35 394.146 400.411 394.364C400.433 394.585 400.402 394.807 400.32 395.013C400.237 395.218 400.107 395.401 399.939 395.546C399.106 395.984 398.209 396.29 397.281 396.451C393.993 396.904 390.705 397.258 387.437 397.652C384.385 399.109 381.038 398.459 378.813 398.932C387.023 398.637 396.178 398.814 405.314 399.326Z" fill="#020100"/>
<path d="M311.202 323.545C314.175 323.84 317.109 324.096 320.141 324.431C322.346 324.667 324.532 324.982 326.697 325.356C327.635 325.507 328.544 325.799 329.395 326.222C329.861 326.35 330.278 326.615 330.591 326.983C330.904 327.351 331.099 327.805 331.15 328.286C331.201 328.766 331.106 329.251 330.877 329.677C330.648 330.103 330.296 330.449 329.867 330.672C328.552 331.529 327.119 332.193 325.614 332.641C322.011 333.763 318.349 334.767 314.687 335.692C306.182 337.911 297.604 340.057 288.954 342.131C287.416 342.466 285.857 342.702 284.288 342.839C283.966 342.848 283.653 342.738 283.406 342.532C283.16 342.325 282.997 342.035 282.949 341.717C282.874 341.404 282.915 341.075 283.063 340.789C283.211 340.503 283.458 340.281 283.757 340.162C285.228 339.619 286.726 339.152 288.246 338.764C298.503 336.185 308.781 333.684 319.019 331.105C320.991 330.788 322.892 330.121 324.63 329.136C324.63 328.782 324.807 328.585 324.748 328.506C324.689 328.427 324.453 328.349 324.315 328.329C321.637 328.014 318.979 327.6 316.321 327.443C312.384 327.207 308.446 327.207 304.508 326.99C302.31 326.845 300.122 326.582 297.952 326.202C297.558 326.132 297.2 325.93 296.935 325.63C296.671 325.329 296.515 324.948 296.495 324.549C296.463 324.151 296.564 323.754 296.781 323.419C296.998 323.085 297.32 322.831 297.696 322.698C298.552 322.298 299.441 321.975 300.354 321.733C307.678 319.843 315.015 317.966 322.366 316.102C323.783 315.728 325.063 316.24 325.063 317.126C325.063 318.012 324.197 318.741 323.271 319.095L311.458 322.639C311.124 323.131 310.474 322.796 310.1 323.17C310.3 323.111 310.513 323.114 310.711 323.181C310.908 323.248 311.08 323.375 311.202 323.545V323.545Z" fill="#040200"/>
<path d="M405.313 399.326L376.391 399.424C375.826 399.362 375.266 399.256 374.717 399.109C375.16 398.857 375.638 398.671 376.135 398.558C379.935 398.558 383.597 397.022 387.436 397.632C388.224 398.676 389.405 398.518 390.448 398.538H401.73C402.97 398.578 404.309 398.341 405.313 399.326Z" fill="#895302"/>
<path d="M397.852 441.282C399.821 441.282 401.494 439.963 403.483 440.298C404.211 441.38 405.452 440.947 406.436 441.341C404.329 442.483 401.986 442.01 399.762 442.266C399.461 442.424 399.131 442.518 398.792 442.541C398.453 442.565 398.113 442.518 397.793 442.404C397.685 442.316 397.607 442.197 397.569 442.064C397.53 441.93 397.533 441.788 397.576 441.656C397.675 441.4 397.773 441.282 397.852 441.282Z" fill="#C07003"/>
<path d="M409.94 444.846C412.576 443.864 415.45 443.72 418.17 444.432C417.218 445.275 415.996 445.749 414.725 445.771C414.459 445.498 414.135 445.289 413.777 445.16C413.419 445.03 413.036 444.983 412.657 445.023C411.752 445.003 410.846 444.905 409.94 444.846Z" fill="#BC6803"/>
<path d="M418.426 430.63C420.532 429.449 422.875 429.882 425.12 429.744C425.514 429.744 426.281 429.626 426.183 430.237C426.085 430.847 425.258 430.788 424.687 430.827C424.344 431.04 423.948 431.153 423.545 431.153C423.141 431.153 422.746 431.04 422.403 430.827L418.426 430.63Z" fill="#917203"/>
<path d="M311.202 323.545C310.763 323.584 310.322 323.584 309.883 323.545C309.647 323.545 309.489 323.19 309.292 322.993C309.411 322.993 309.529 322.777 309.667 322.757C310.257 322.757 310.848 322.757 311.439 322.639L311.202 323.545Z" fill="#A17E04"/>
<path d="M422.404 430.808H424.687C424.396 431.139 424.022 431.386 423.603 431.525C423.184 431.663 422.736 431.688 422.305 431.595C422.367 431.337 422.4 431.073 422.404 430.808Z" fill="#A73001"/>
<path d="M225.026 349.238C224.993 354.28 225.217 359.32 225.695 364.339C226.01 366.938 225.302 368.277 224.061 368.08C222.211 367.706 222.309 366.111 222.23 364.713C221.689 357.005 221.689 349.268 222.23 341.56C222.145 340.295 222.507 339.04 223.254 338.016C223.415 337.861 223.607 337.744 223.818 337.673C224.029 337.601 224.253 337.577 224.475 337.602C224.698 337.658 224.906 337.762 225.083 337.909C225.26 338.056 225.402 338.24 225.499 338.449C225.647 339.05 225.647 339.678 225.499 340.28C225.125 343.251 224.967 346.244 225.026 349.238V349.238Z" fill="#090500"/>
<path d="M202.286 365.304C202.286 367.804 201.833 369.005 200.73 368.848C199.037 368.612 199.057 367.115 198.899 365.934C198.368 361.878 197.934 357.803 197.462 353.727C197.226 351.758 197.009 349.671 196.792 347.624C196.723 347.236 196.734 346.838 196.826 346.456C196.917 346.073 197.087 345.713 197.324 345.399C197.797 344.848 199.037 344.788 199.293 345.399C199.549 345.797 199.736 346.237 199.844 346.698C200.73 352.939 201.518 359.2 202.286 365.304Z" fill="#110900"/>
<path d="M173.619 372.963C174.023 372.994 174.413 373.124 174.756 373.34C175.099 373.556 175.385 373.852 175.588 374.203C178.009 377.314 180.431 380.425 182.754 383.614C184.074 385.386 185.215 387.276 186.436 389.107C186.993 389.887 187.276 390.828 187.243 391.785C187.261 392.103 187.166 392.418 186.976 392.674C186.785 392.929 186.51 393.109 186.2 393.183C185.749 393.238 185.294 393.126 184.92 392.868C184.455 392.454 184.069 391.961 183.778 391.411C180.851 386.552 177.629 381.877 174.131 377.412C173.492 376.521 172.926 375.579 172.438 374.597C172.083 373.967 172.989 372.864 173.619 372.963Z" fill="#0D0700"/>
<path d="M178.856 365.186C179.171 365.186 179.545 365.186 179.742 365.481C180.188 365.917 180.578 366.406 180.904 366.938C183.562 371.407 186.22 375.896 188.779 380.405C189.45 381.675 190.029 382.99 190.512 384.343C190.615 384.648 190.606 384.98 190.487 385.279C190.368 385.578 190.147 385.826 189.862 385.977C189.53 386.196 189.124 386.275 188.734 386.198C188.343 386.12 187.999 385.892 187.775 385.563C187.57 385.331 187.385 385.08 187.224 384.815L178.285 368.552C177.824 367.905 177.589 367.123 177.616 366.328C177.714 365.658 178.226 365.363 178.856 365.186Z" fill="#0E0700"/>
<path d="M208.822 351.049C208.822 348.234 208.822 345.399 208.822 342.583C208.776 342.193 208.816 341.796 208.938 341.423C209.061 341.049 209.263 340.706 209.531 340.418C209.866 340.103 210.259 339.788 210.771 340.024C211.283 340.26 211.382 340.299 211.48 340.536C211.715 341.106 211.854 341.712 211.894 342.327C212.09 347.499 212.261 352.677 212.405 357.862C212.563 359.114 212.407 360.386 211.953 361.563C211.83 361.852 211.619 362.095 211.351 362.257C211.082 362.42 210.769 362.494 210.456 362.469C210.141 362.468 209.835 362.361 209.588 362.164C209.342 361.967 209.169 361.693 209.098 361.386C208.923 360.624 208.837 359.844 208.842 359.063C208.842 356.405 208.842 353.727 208.842 351.049H208.822Z" fill="#180D00"/>
<path d="M193.307 375.463C193.172 375.885 193.015 376.299 192.835 376.704C192.743 376.874 192.614 377.021 192.456 377.133C192.298 377.244 192.116 377.317 191.924 377.346C191.733 377.375 191.538 377.358 191.354 377.298C191.17 377.238 191.003 377.135 190.866 376.999C190.469 376.524 190.156 375.985 189.94 375.404C188.346 369.97 186.003 364.831 183.896 359.653C183.598 358.945 183.412 358.194 183.345 357.428C183.345 357.074 183.758 356.621 184.093 356.346C184.428 356.07 184.999 356.188 185.373 356.483C185.755 356.752 186.066 357.111 186.278 357.527C188.848 362.732 191.058 368.106 192.894 373.612C193.071 374.144 193.169 374.774 193.307 375.463Z" fill="#0E0700"/>
<path d="M203.664 352.802C203.526 349.967 203.329 347.131 203.25 344.296C203.241 343.676 203.397 343.064 203.703 342.524C204.015 342.208 204.424 342.007 204.865 341.953C205.016 341.96 205.163 342.001 205.296 342.072C205.429 342.144 205.544 342.245 205.633 342.367C205.911 342.746 206.1 343.184 206.184 343.647C206.44 345.615 206.696 347.407 206.834 349.277C207.07 352.92 207.208 356.543 207.424 360.165C207.57 361.266 207.456 362.385 207.09 363.434C206.988 363.731 206.789 363.984 206.524 364.153C206.259 364.321 205.945 364.394 205.633 364.359C205.313 364.345 205.008 364.223 204.768 364.011C204.528 363.8 204.367 363.513 204.314 363.197C204.129 362.27 204.043 361.327 204.058 360.382C204.058 357.862 204.058 355.342 204.058 352.802H203.664Z" fill="#0D0700"/>
<path d="M172.851 387.985C172.3 386.725 170.98 385.859 170.882 384.343C170.829 384.036 170.866 383.72 170.988 383.434C171.11 383.147 171.313 382.902 171.571 382.728C171.836 382.552 172.159 382.487 172.472 382.546C172.784 382.605 173.062 382.783 173.245 383.043C176.835 387.356 180.175 391.872 183.246 396.569C183.715 397.373 184.079 398.233 184.329 399.129C184.703 400.35 184.152 400.881 182.36 401.354C178.35 397.56 175.12 393.018 172.851 387.985V387.985Z" fill="#0E0700"/>
<path d="M191.28 349.927C191.673 350.058 192.04 350.258 192.362 350.518C192.612 350.902 192.785 351.329 192.874 351.778C194.292 356.759 195.709 361.622 197.088 366.721C197.718 368.986 197.265 370.797 196.084 370.659C194.233 370.659 194.115 368.887 193.76 367.568C192.54 363.197 191.371 358.807 190.256 354.396C190.032 353.328 189.926 352.239 189.941 351.148C189.941 350.538 190.492 350.144 191.28 349.927Z" fill="#100900"/>
<path d="M181.199 402.456C181.41 403.357 181.555 404.271 181.632 405.193C181.632 406.532 180.786 407.162 179.447 406.807C177.675 406.394 177.576 404.642 176.73 403.5C175.253 400.448 172.792 397.947 172.004 394.502C171.335 393.478 170.626 392.533 170.036 391.391C169.445 390.249 169.918 389.619 171.768 389.068C176.592 392.356 179.132 397.239 181.199 402.456Z" fill="#0C0700"/>
<path d="M215.516 349.317C215.516 346.816 215.516 344.296 215.516 341.796C215.532 341.181 215.716 340.582 216.047 340.063C216.386 339.789 216.813 339.649 217.248 339.669C217.397 339.682 217.54 339.73 217.667 339.808C217.794 339.887 217.9 339.995 217.977 340.122C218.234 340.512 218.396 340.957 218.449 341.422C218.745 346.589 218.745 351.769 218.449 356.936C218.418 357.248 218.365 357.557 218.292 357.862C218.238 358.254 218.05 358.616 217.759 358.885C217.468 359.155 217.093 359.315 216.697 359.338C215.752 359.338 215.339 358.57 215.299 357.783C215.299 356.227 215.299 354.652 215.417 353.077C215.417 351.837 215.417 350.577 215.417 349.317H215.516Z" fill="#0B0600"/>
<path d="M179.348 408.973C179.23 411.552 178.758 411.848 176.592 410.824C175.228 409.323 174.099 407.623 173.245 405.784C172.595 404.799 172.024 403.815 171.276 402.811C170.669 402.043 170.245 401.148 170.036 400.192C169.622 399.582 169.189 398.971 168.815 398.341C167.614 396.372 168.027 395.742 170.784 395.742C174.19 397.357 175.253 400.861 177.163 403.618C178.008 405.353 178.739 407.142 179.348 408.973V408.973Z" fill="#0C0700"/>
<path d="M175.785 410.824C175.903 412.182 175.549 413.245 173.993 413.462C171.217 412.556 170.745 410.115 170.055 407.733C169.544 406.847 169.051 405.941 168.461 405.094C168.13 404.695 167.911 404.214 167.828 403.702C167.745 403.189 167.8 402.664 167.988 402.181C168.456 401.862 169.017 401.711 169.581 401.75C170.145 401.789 170.68 402.017 171.099 402.397C171.808 403.519 172.595 404.543 173.324 405.646C174.378 407.25 175.207 408.993 175.785 410.824V410.824Z" fill="#0F0A00"/>
<path d="M172.576 413.679C172.721 414.285 172.8 414.906 172.812 415.529C172.79 415.747 172.712 415.956 172.586 416.136C172.46 416.315 172.29 416.459 172.093 416.554C171.895 416.649 171.676 416.691 171.457 416.677C171.239 416.663 171.027 416.594 170.843 416.474C168.879 414.689 167.367 412.462 166.433 409.977C166.392 409.824 166.385 409.664 166.41 409.508C166.436 409.352 166.495 409.203 166.582 409.071C166.669 408.939 166.784 408.827 166.918 408.742C167.051 408.657 167.201 408.602 167.358 408.579C167.963 408.597 168.561 408.71 169.13 408.914C171.237 409.761 171.985 411.729 172.576 413.679Z" fill="#140C00"/>
<path d="M181.199 402.456C178.317 397.815 175.168 393.344 171.768 389.068L172.851 387.985C175.578 390.783 177.933 393.919 179.86 397.317C180.707 398.617 181.455 399.995 182.242 401.255C181.829 401.708 181.534 402.023 181.199 402.456Z" fill="#BB6803"/>
<path d="M176.73 403.992L170.823 395.683L172.044 394.443C174.387 396.995 176.284 399.924 177.655 403.106C178.01 404.149 177.557 404.307 176.73 403.992Z" fill="#C16A03"/>
<path d="M172.575 413.679C171.073 412.356 169.866 410.733 169.031 408.914L170.154 407.733C171.985 409.268 172.378 411.67 174.091 413.462L172.575 413.679Z" fill="#BD6A03"/>
<path d="M175.785 410.824C174.521 409.427 173.533 407.803 172.871 406.039C173.127 405.665 173.206 405.114 173.796 405.055C175.242 406.683 176.21 408.68 176.592 410.824H176.179H175.785Z" fill="#7E4702"/>
<path d="M176.73 403.992L177.616 403.106C178.837 404.031 178.64 405.646 179.447 406.748C179.447 407.477 179.447 408.186 179.447 408.914C178.303 407.417 177.387 405.758 176.73 403.992V403.992Z" fill="#7F4302"/>
<path d="M171 403.165C170.638 402.767 170.181 402.468 169.671 402.296C169.161 402.123 168.616 402.084 168.086 402.181L170.055 400.212C170.873 400.681 171.495 401.429 171.808 402.318C172.26 403.263 171.827 403.382 171 403.165Z" fill="#BF7203"/>
<path d="M319.649 506.628C320.187 506.704 320.72 506.816 321.243 506.963C325.713 508.47 329.918 510.669 333.706 513.48C334.332 513.954 334.877 514.526 335.321 515.173C335.595 515.459 335.748 515.84 335.748 516.236C335.748 516.633 335.595 517.013 335.321 517.299C335.202 517.455 335.053 517.584 334.882 517.679C334.71 517.773 334.521 517.831 334.326 517.847C334.132 517.864 333.935 517.84 333.751 517.776C333.566 517.712 333.396 517.61 333.253 517.477C332.997 517.299 332.761 517.083 332.525 516.886C328.998 513.987 325.003 511.71 320.712 510.152C319.973 509.896 319.276 509.531 318.644 509.07C318.49 508.904 318.37 508.708 318.292 508.495C318.214 508.282 318.18 508.056 318.192 507.829C318.192 507.12 318.743 506.805 319.649 506.628Z" fill="#110900"/>
<path d="M338.648 510.034C338.563 510.329 338.384 510.588 338.139 510.773C337.894 510.957 337.596 511.057 337.289 511.058C336.51 510.965 335.759 510.71 335.084 510.31C330.838 507.878 326.317 505.961 321.617 504.6C320.712 504.364 319.786 503.931 319.845 502.73C319.905 501.529 321.007 501.293 322.503 501.627C327.872 502.936 333.002 505.082 337.703 507.987C338.069 508.171 338.361 508.474 338.533 508.846C338.705 509.217 338.745 509.636 338.648 510.034V510.034Z" fill="#110A00"/>
<path d="M314.884 512.102C315.487 512.244 316.079 512.428 316.656 512.653C320.919 514.754 324.89 517.402 328.469 520.528C328.712 520.738 328.936 520.969 329.139 521.217C330.044 522.281 330.123 523.521 329.277 524.112C328.43 524.702 327.485 524.23 326.776 523.58C323.274 520.407 319.4 517.67 315.239 515.429C314.655 515.157 314.142 514.753 313.742 514.248C313.636 514.048 313.58 513.825 313.58 513.598C313.58 513.371 313.636 513.148 313.742 512.948C313.88 512.515 314.431 512.377 314.884 512.102Z" fill="#110900"/>
<path d="M324.846 496.016C325.43 496.051 326.01 496.136 326.579 496.272C330.835 497.372 335.001 498.794 339.042 500.525C339.469 500.722 339.862 500.988 340.203 501.312C340.444 501.518 340.612 501.795 340.683 502.104C340.754 502.412 340.724 502.735 340.597 503.025C340.475 503.316 340.26 503.558 339.986 503.715C339.712 503.872 339.394 503.934 339.081 503.892C338.459 503.829 337.848 503.677 337.27 503.439C333.086 501.629 328.768 500.147 324.354 499.009C324.048 498.959 323.758 498.838 323.508 498.654C323.241 498.493 323.031 498.253 322.908 497.967C322.784 497.681 322.753 497.364 322.818 497.06C322.937 496.508 323.35 496.311 323.783 496.154C324.133 496.078 324.489 496.032 324.846 496.016V496.016Z" fill="#120B00"/>
<path d="M323.724 526.927C323.724 528.128 322.74 528.896 322.051 528.522C321.606 528.386 321.191 528.165 320.83 527.872C318.374 525.419 315.742 523.149 312.954 521.08C312.476 520.683 312.058 520.219 311.714 519.701C311.514 519.461 311.404 519.158 311.404 518.845C311.404 518.532 311.514 518.229 311.714 517.988C311.871 517.712 312.131 517.509 312.438 517.424C312.744 517.34 313.071 517.38 313.348 517.536C316.889 519.851 320.141 522.581 323.035 525.667C323.355 526.031 323.59 526.461 323.724 526.927V526.927Z" fill="#140B00"/>
<path d="M317.778 531.967C317.704 532.151 317.592 532.316 317.451 532.455C317.31 532.593 317.142 532.7 316.957 532.771C316.772 532.841 316.575 532.872 316.377 532.863C316.18 532.853 315.986 532.803 315.809 532.716C315.426 532.441 315.064 532.138 314.726 531.81L308.82 525.746C308.491 525.41 308.182 525.055 307.894 524.683C307.563 524.347 307.376 523.894 307.376 523.423C307.376 522.951 307.563 522.498 307.894 522.163C308.225 521.947 308.622 521.858 309.013 521.912C309.404 521.966 309.762 522.16 310.021 522.458C311.517 523.836 313.013 525.214 314.411 526.691C315.49 527.819 316.503 529.009 317.443 530.255C317.66 530.477 317.806 530.757 317.866 531.061C317.925 531.365 317.895 531.68 317.778 531.967V531.967Z" fill="#170C00"/>
<path d="M305.434 526.061C305.747 526.081 306.051 526.175 306.32 526.336C308.526 528.296 310.507 530.495 312.226 532.893C312.392 533.157 312.468 533.468 312.443 533.779C312.427 534.226 312.276 534.659 312.01 535.019C311.625 535.23 311.186 535.319 310.75 535.275C310.437 535.243 310.145 535.104 309.923 534.881C308.072 532.775 306.241 530.668 304.469 528.522C304.216 528.139 304.104 527.679 304.154 527.222C304.221 526.92 304.38 526.646 304.609 526.438C304.839 526.23 305.127 526.098 305.434 526.061V526.061Z" fill="#140A00"/>
<path d="M306.3 537.382C306.1 537.703 305.792 537.943 305.431 538.059C305.071 538.174 304.68 538.158 304.331 538.012C302.117 536.525 300.483 534.321 299.704 531.77C299.682 531.541 299.723 531.311 299.823 531.103C299.922 530.896 300.077 530.719 300.27 530.594C300.462 530.468 300.686 530.397 300.916 530.389C301.146 530.382 301.374 530.437 301.575 530.55C303.455 532.188 305.029 534.148 306.221 536.338C306.398 536.555 306.3 536.929 306.3 537.382Z" fill="#180C00"/>
<path d="M295.353 534.212C295.648 534.212 296.023 534.212 296.219 534.409C297.608 535.644 298.676 537.198 299.33 538.937C299.438 539.233 299.444 539.556 299.347 539.855C299.251 540.154 299.058 540.413 298.799 540.591C298.567 540.801 298.265 540.918 297.952 540.918C297.639 540.918 297.337 540.801 297.105 540.591C295.768 539.301 294.761 537.707 294.172 535.944C294.116 535.752 294.103 535.549 294.135 535.352C294.166 535.154 294.241 534.965 294.354 534.799C294.467 534.634 294.615 534.495 294.788 534.394C294.96 534.292 295.154 534.23 295.353 534.212V534.212Z" fill="#170B00"/>
<path d="M293.365 541.024C293.327 541.208 293.254 541.383 293.148 541.539C293.042 541.694 292.907 541.827 292.749 541.93C292.592 542.033 292.415 542.103 292.23 542.137C292.045 542.17 291.855 542.167 291.672 542.127C290.883 541.662 290.228 541 289.773 540.206C289.317 539.412 289.076 538.514 289.073 537.598C289.132 537.382 289.237 537.181 289.379 537.008C289.522 536.835 289.699 536.694 289.9 536.594C290.097 536.501 290.312 536.453 290.53 536.453C290.748 536.453 290.963 536.501 291.16 536.594C291.818 537.136 292.355 537.811 292.735 538.574C293.115 539.337 293.329 540.172 293.365 541.024V541.024Z" fill="#271200"/>
<path d="M397.871 442.01L399.84 442.266C397.694 443.546 395.43 443.034 392.949 442.975C393.816 441.774 394.918 442.188 395.706 442.05C396.023 441.832 396.398 441.713 396.783 441.706C397.167 441.699 397.546 441.805 397.871 442.01Z" fill="#712301"/>
<path d="M397.871 442.01H395.627C395.879 441.676 396.226 441.424 396.622 441.287C397.018 441.15 397.447 441.135 397.852 441.243C397.792 441.496 397.799 441.76 397.871 442.01Z" fill="#5D6303"/>
<path d="M171 403.165L171.847 402.299C172.736 403.027 173.415 403.978 173.816 405.055L172.891 406.039C172.241 405.075 171.631 404.11 171 403.165Z" fill="#9A5603"/>
<path d="M446.876 367.903C446.835 369.181 446.299 370.393 445.38 371.282C444.461 372.171 443.232 372.668 441.954 372.667C440.757 372.708 439.59 372.291 438.69 371.501C437.79 370.71 437.225 369.607 437.111 368.415C437.053 367.785 437.127 367.15 437.327 366.551C437.527 365.951 437.849 365.399 438.272 364.929C438.695 364.459 439.211 364.082 439.787 363.822C440.363 363.561 440.987 363.422 441.619 363.414C442.895 363.383 444.136 363.824 445.106 364.653C446.076 365.481 446.707 366.638 446.876 367.903V367.903Z" fill="#0B0A0A"/>
<path d="M419.017 352.054C417.819 352.028 416.68 351.528 415.85 350.665C415.02 349.801 414.566 348.644 414.587 347.446C414.597 346.813 414.732 346.188 414.984 345.606C415.236 345.025 415.6 344.499 416.055 344.058C416.51 343.618 417.048 343.271 417.637 343.038C418.226 342.806 418.856 342.691 419.489 342.701C420.687 342.703 421.841 343.155 422.72 343.969C423.599 344.783 424.14 345.898 424.234 347.092C424.227 347.763 424.085 348.426 423.817 349.042C423.549 349.657 423.16 350.212 422.673 350.675C422.187 351.138 421.613 351.498 420.985 351.735C420.357 351.971 419.687 352.08 419.017 352.054V352.054Z" fill="#0B0808"/>
<path d="M475.582 369.99C476.159 369.919 476.745 369.966 477.304 370.127C477.863 370.288 478.384 370.561 478.834 370.929C479.285 371.297 479.656 371.752 479.926 372.268C480.197 372.783 480.36 373.348 480.406 373.927C480.42 375.272 479.924 376.572 479.018 377.566C478.112 378.56 476.863 379.173 475.523 379.283C474.341 379.239 473.216 378.764 472.36 377.948C471.504 377.132 470.977 376.031 470.876 374.853C470.926 373.606 471.434 372.421 472.302 371.524C473.169 370.627 474.337 370.081 475.582 369.99Z" fill="#0A0808"/>
<path d="M485.899 270.11C485.874 269.564 485.962 269.02 486.159 268.511C486.356 268.001 486.656 267.539 487.041 267.152C487.426 266.765 487.888 266.462 488.396 266.263C488.904 266.064 489.448 265.973 489.994 265.995C491.17 266.013 492.299 266.462 493.166 267.256C494.033 268.051 494.579 269.137 494.699 270.307C494.77 271.482 494.376 272.638 493.603 273.525C492.83 274.413 491.739 274.961 490.565 275.052C489.317 274.941 488.153 274.378 487.293 273.467C486.433 272.556 485.937 271.362 485.899 270.11V270.11Z" fill="#0C0B0B"/>
<path d="M416.832 315.059C416.246 315.029 415.673 314.875 415.151 314.606C414.63 314.337 414.172 313.959 413.808 313.499C413.444 313.038 413.184 312.505 413.043 311.935C412.902 311.366 412.885 310.773 412.992 310.196C412.977 309.595 413.099 308.998 413.35 308.452C413.601 307.906 413.973 307.424 414.439 307.044C414.904 306.664 415.451 306.395 416.036 306.259C416.622 306.123 417.23 306.123 417.816 306.258C418.968 306.522 419.982 307.203 420.662 308.17C421.342 309.137 421.64 310.322 421.498 311.495C421.455 312.048 421.296 312.585 421.031 313.072C420.767 313.559 420.402 313.984 419.962 314.321C419.521 314.657 419.015 314.897 418.476 315.024C417.936 315.151 417.376 315.163 416.832 315.059V315.059Z" fill="#0A0808"/>
<path d="M443.352 276.646C443.343 276.047 443.493 275.456 443.787 274.934C444.081 274.411 444.508 273.977 445.025 273.673C445.546 273.303 446.169 273.104 446.807 273.104C447.446 273.104 448.069 273.303 448.589 273.673C449.57 274.198 450.413 274.947 451.05 275.859C451.458 276.537 451.651 277.323 451.606 278.113C451.56 278.904 451.277 279.662 450.794 280.289C450.283 280.891 449.59 281.311 448.819 281.485C448.049 281.659 447.242 281.578 446.522 281.254C445.598 280.884 444.803 280.25 444.239 279.43C443.675 278.61 443.366 277.642 443.352 276.646V276.646Z" fill="#0F0E0E"/>
<path d="M530.611 324.371C530.655 325.393 530.299 326.392 529.62 327.157C528.94 327.921 527.989 328.391 526.969 328.467C525.792 328.4 524.688 327.878 523.89 327.01C523.092 326.143 522.664 324.998 522.697 323.82C522.702 323.276 522.815 322.738 523.031 322.237C523.246 321.737 523.559 321.285 523.951 320.907C524.344 320.53 524.808 320.234 525.316 320.038C525.824 319.842 526.366 319.749 526.91 319.764C528.004 319.903 529.001 320.46 529.692 321.32C530.382 322.179 530.712 323.273 530.611 324.371V324.371Z" fill="#0B0707"/>
<path d="M522.185 293.165C522.206 293.676 522.124 294.187 521.942 294.665C521.76 295.143 521.483 295.58 521.128 295.948C520.773 296.316 520.347 296.608 519.875 296.807C519.404 297.005 518.897 297.106 518.385 297.103C517.88 297.141 517.372 297.074 516.894 296.906C516.416 296.738 515.978 296.472 515.608 296.126C515.238 295.78 514.944 295.361 514.744 294.895C514.544 294.43 514.443 293.928 514.447 293.421C514.353 292.398 514.663 291.378 515.31 290.579C515.958 289.781 516.892 289.268 517.912 289.149C519.011 289.117 520.077 289.522 520.878 290.274C521.679 291.027 522.149 292.067 522.185 293.165V293.165Z" fill="#070404"/>
<path d="M510.982 353.865C510.26 353.456 509.419 353.31 508.601 353.45C507.783 353.589 507.038 354.007 506.493 354.633C506.248 354.929 506.018 355.238 505.804 355.558C505.549 355.964 505.381 356.419 505.31 356.893C505.238 357.367 505.266 357.851 505.39 358.314C505.572 359.067 505.9 359.776 506.355 360.401C506.635 360.779 506.986 361.098 507.39 361.339C507.794 361.579 508.242 361.737 508.707 361.803C509.173 361.869 509.646 361.842 510.101 361.723C510.556 361.604 510.982 361.396 511.356 361.11C511.917 360.672 512.364 360.105 512.66 359.458C512.955 358.81 513.09 358.101 513.054 357.39C513.017 356.679 512.81 355.988 512.449 355.374C512.088 354.761 511.585 354.243 510.982 353.865Z" fill="#0E0B0B"/>
<path d="M468.632 363.434C457.641 363.118 447.165 358.708 439.257 351.069C435.29 347.415 432.142 342.962 430.019 338.005C427.895 333.047 426.845 327.697 426.936 322.304C427.027 316.912 428.258 311.6 430.547 306.717C432.837 301.834 436.134 297.491 440.221 293.972C448.543 286.768 459.137 282.724 470.143 282.551C481.15 282.378 491.865 286.087 500.409 293.027C521.574 310.747 519.231 342.249 495.074 356.838C487.079 361.536 477.897 363.827 468.632 363.434Z" fill="#F5A623"/>
<path d="M448.294 352.802C447.349 352.585 447.014 351.955 447.113 351.364C447.311 350.446 447.614 349.554 448.018 348.706C450.444 343.219 453.205 337.886 456.288 332.739C462.785 321.556 469.262 310.353 475.819 299.269C477.256 296.827 478.87 294.465 480.505 292.161C481.666 290.507 482.769 290.192 483.556 291.019C484.344 291.846 483.97 292.988 483.34 293.972C475.228 305.785 468.652 318.642 461.308 330.987C457.389 337.283 453.833 343.797 450.657 350.498C450.333 351.216 449.902 351.88 449.377 352.467C449.101 352.802 448.55 352.802 448.294 352.802Z" fill="#060300"/>
<path d="M442.919 335.082C442.151 335.082 441.619 334.728 441.462 333.999C441.406 333.21 441.637 332.427 442.112 331.794C447.624 321.661 453.137 311.528 458.65 301.395C459.425 300.029 460.286 298.713 461.229 297.457C461.344 297.249 461.501 297.066 461.691 296.922C461.88 296.778 462.098 296.674 462.329 296.619C462.561 296.563 462.802 296.557 463.036 296.599C463.27 296.642 463.493 296.733 463.69 296.867C464.576 297.634 464.32 298.54 463.867 299.426L463.631 299.84C457.252 310.215 451.818 321.123 445.793 331.676C445.27 332.646 444.691 333.586 444.061 334.491C443.805 334.846 443.253 334.944 442.919 335.082Z" fill="#080400"/>
<path d="M485.033 317.815C485.308 318.878 484.639 319.626 484.147 320.414C480.117 326.977 476.088 333.54 472.058 340.103C470.503 342.662 469.026 345.261 467.471 347.82C466.993 348.621 466.44 349.372 465.817 350.065C465.711 350.183 465.583 350.277 465.438 350.341C465.294 350.406 465.138 350.439 464.98 350.439C464.822 350.439 464.666 350.406 464.522 350.341C464.377 350.277 464.249 350.183 464.143 350.065C463.98 349.906 463.851 349.716 463.763 349.507C463.675 349.297 463.63 349.072 463.631 348.844C463.815 348.085 464.107 347.355 464.498 346.679C469.656 337.307 475.287 328.211 480.898 319.115C481.366 318.112 482.176 317.309 483.182 316.85C483.871 316.614 485.033 317.146 485.033 317.815Z" fill="#090500"/>
<path d="M492.377 330.061C492.194 330.613 491.977 331.152 491.727 331.676C487.435 339.774 483.13 347.853 478.811 355.912C478.24 356.976 477.807 358.433 476.153 358.098C475.267 357.94 474.952 356.562 476.153 354.396C480.209 346.718 484.147 338.98 488.163 331.282C488.502 330.227 489.155 329.299 490.034 328.624C490.444 328.427 490.91 328.378 491.353 328.486C491.963 328.644 492.18 329.274 492.377 330.061Z" fill="#0A0600"/>
</g>
</svg>
